<svg xmlns="http://www.w3.org/2000/svg" viewBox="0 0 1171.16 324.69"><defs><style>.cls-1{fill:#f2efe3;}.cls-2{fill:#252739;}.cls-3{fill:#e7ebee;}.cls-4{fill:#afb4c8;}.cls-5{fill:#cfd3de;}.cls-6{fill:#fbfbf6;}.cls-7{fill:#f3b442;}.cls-8{fill:#f1ede5;}.cls-9{fill:#cad0db;}.cls-10{fill:#f6f6f3;}.cls-11{fill:#45b282;}.cls-12{fill:#e13282;}.cls-13{fill:#4f5165;}.cls-14{fill:#c75589;}.cls-15{fill:#536eb4;}</style></defs><title>28314Fichier 1-0</title><g id="Calque_2" data-name="Calque 2"><g id="Calque_1-2" data-name="Calque 1"><path class="cls-1" d="M263,267.66c-.37,6-5.5,8.6-9.15,11.86A191.08,191.08,0,0,1,209,309.68c-23.56,11.3-48.43,16.8-74.43,14.38-26.38-2.46-50.09-12.57-70.72-29.36-21.34-17.37-38.15-38.4-49.5-63.55a144.1,144.1,0,0,1-12.52-45.3C1.19,179.1-.21,172.32,0,165.6c.52-14.4,2.14-28.74,6.11-42.68C14.28,94.28,28.22,69,49,47.46c12.48-12.9,26.37-23.84,42.38-31.83a151.27,151.27,0,0,1,48.4-14.51c9-1.17,17.93-.83,26.89-.8,18.87,0,36.7,5,53.9,12.43,19.19,8.3,35.62,20.55,49.9,35.7a153,153,0,0,1,31.67,51.36,169.89,169.89,0,0,1,10.74,61.35c-1,.72-1,1.44,0,2.17-2.55,26.44-10,51.29-24.09,74-1.32,2.12-2.55,4.39-5.64,4.12q-21-21.09-41.91-42.18c-2.8-2.8-6.17-5.2-10.11-4.62s-5.88-1.22-8-3.59a43.2,43.2,0,0,0-4.53-4.64c-2.47-2-2.19-3.61-.4-6.08,9.15-12.66,13.47-26.93,13.65-42.51.1-8.67-1.57-17.07-4.12-25.88,9.61,1,18.69,2,27.78,2.87,6.34.62,11.54-3,12.23-9.09,1.63-14.39,3.1-28.81,4.27-43.25.64-7.86-3.29-12.21-11.15-13-23.35-2.45-46.69-4.94-70.07-7.12-15.93-1.48-17.68.09-19.1,16.1-.33,3.64-1.57,4.32-4.9,3.71A67.33,67.33,0,0,0,140,62.8c-34.61,7.62-58.55,36.09-60.18,71.53-.12,2.53-.47,3.78-3.47,4.07-11.59,1.11-23.15,2.61-34.73,3.91-9.95,1.12-13.76,6-12.47,15.83Q31.6,177,33.79,195.8c1.08,9.21,6,13.09,15.34,11.84,8.41-1.13,16.83-2.24,25.27-3.18,1.32-.14,3.44-1.68,3.76,1.87,1.31,14.42,3,28.8,4.54,43.2,1,9.6,6,13.34,15.48,12.2q36.19-4.35,72.42-8.42c9-1,13.07-5.85,12-14.76-.86-7.11-1.37-14.28-2.69-21.3-1-5.37-.11-8.59,5.72-10.11,3.45-.9,6.61-3.06,9.76-4.89,7.16-4.16,7.21-4.3,12.89,1.68,1.91,2,5.15,3.31,4.42,7.19-.94,5.06,1.34,9,4.82,12.48q19.23,19.29,38.39,38.67A25.66,25.66,0,0,0,263,267.66Z"/><path class="cls-1" d="M741.89,163.29c-1.29,14.41-3.9,28.53-8.92,42.16a189.45,189.45,0,0,1-21.7,41.86,185.78,185.78,0,0,1-26.74,30.75,179,179,0,0,1-73.27,41.8,122.64,122.64,0,0,1-46.38,4.22,133.41,133.41,0,0,1-74.71-31.89,172.26,172.26,0,0,1-44.74-57.89,159.87,159.87,0,0,1-14.61-49.83c-3.95-32.93,2.05-64.13,16.85-93.6,14.62-29.12,35.21-53.15,63.35-70A141.93,141.93,0,0,1,568.47,1.23c20.14-2.25,40.09-1.45,59.69,4a150.06,150.06,0,0,1,56.9,29.66A156.17,156.17,0,0,1,730.64,98,160.86,160.86,0,0,1,741,141.33c.69,6.65.61,13.25.87,19.88C740.9,161.91,740.9,162.6,741.89,163.29ZM705.63,190l-.08.12c3.09-5.2,3.29-10.81.48-13.89-.09-.52-.19-1.05-.28-1.57a2.39,2.39,0,0,0-.79-2.42.51.51,0,0,1-.19-.68c.17-2.89,2.14-3.42,4.5-3.44,1.94.93,3.1.55,3.5-1.77,2.1-12.25-7.57-27.88-19.59-30.82-5.28-1.29-10.69-2.58-16.22-2.44-2.44.06-3.53-.4-3.59-3.2-.06-3.29,1.88-2.83,3.87-2.83,2.66,0,5.34.13,8-.12,9.39-.89,15.32-6.87,15.65-16.22.1-2.79,1.23-3.47,3.51-4.15,4.39-1.33,6.47-4.73,6.28-9.13-.28-6.21,2.39-13.31-4.72-17.72a4.29,4.29,0,0,0-1.86-.63c-2.56-.16-3-1.53-3.18-3.93-.59-10.85-7.19-17-18-17-6.84,0-13.67-.1-20.5,0-2.52,0-3.63-.57-3.46-3.33.21-3.11-.17-5.88,3.46-7.89,3.34-1.85,3.87-5.68,2.5-9.33a7.84,7.84,0,0,0-7.55-5.52c-4.07-.12-6.6,2.18-8,5.67-1.72,4.39,0,7.93,3.84,10.2s2,5.68,2,8.46c-.06,3.15-3.15,1.57-4.79,1.62-6.66.19-13.33-.07-20,.06-9.6.18-16.28,6.6-16.74,16.22-.12,2.62-.46,4-3.4,4.79-4.09,1.05-6.26,4.24-6.44,8.51-.13,3.16,0,6.33,0,9.5-.08,5,2.37,8.31,7,9.74,2.16.67,2.73,1.54,2.9,3.72.78,10.39,7.09,16.21,17.55,16.47,2.5.06,5,0,7.5-.08,1.68-.09,2.63.43,2.29,2.22-.27,1.39,1.06,3.94-1.7,3.79-6.71-.38-13,2.34-19.79,2a61.81,61.81,0,0,0-40,11.48,7,7,0,0,1-6.37,1.16c-10.33-2.4-19.54.17-27.19,7.45-8.44,8-16.62,16.37-24.86,24.62-1.2,1.2-3.08,2.45-1.13,4.53v3.39c-5.61,1.22-10.87,3.25-15,7.34-11.15,11-22.56,21.75-33.2,33.22-14.24,15.37-6.89,40.41,13.29,46.12,12.76,3.62,23.21-.83,31.68-10.5,2.06-2.35,3.21-3.25,6-.43a22.53,22.53,0,0,0,32.6-.29c9.18-9.59,8.8-23.34-.82-32.79-.77-.76-2.7-1.13-.44-3.26,10.55-9.93,20.7-20.28,31-30.45,8.25-8.15,11.43-17.82,8.42-29.13-.59-2.23,0-3,1.76-3.75A54.89,54.89,0,0,1,614,159.26c2.88-.09,4.13.59,4.39,3.66a85,85,0,0,0,3.9,18.5c.67,2.1,1.41,3.85,4.13,2.69,3-.09,4.66,1.27,4.52,4.43a2.89,2.89,0,0,0,1.92,2.73l-.09,2.88c-6.39,1-12.19,3.43-16.84,8-10.66,10.55-21.41,21-31.78,31.85-11.18,11.68-11,28.48.11,39.51a28.55,28.55,0,0,0,40.45.51c3.51-3.32,7-6.71,10.19-10.31,1.79-2,2.76-2.35,4.85-.19a21.06,21.06,0,0,0,19.15,6.32A23.35,23.35,0,0,0,673.72,232c-2.1-2.65-1.8-3.72.41-5.79,5.35-5,10.46-10.28,15.61-15.5,5.36-5.43,11.4-10.3,14.63-17.52C706.08,192.62,705.84,191.31,705.63,190ZM555.15,111.27c10,.11,18.34-4.89,21.66-13,3.8-9.25,2-17.62-4.66-24.94a10.65,10.65,0,0,1-3.07-5.45c-1.82-9.68-8.58-15.47-18.32-15.79a6.1,6.1,0,0,1-5.11-2.23c-6.62-7.72-15.94-9.74-25.27-5.59-2.06.92-3.56,1.28-5.87.17-9.64-4.65-19.44-1.92-25.35,7a7,7,0,0,1-5.07,3.2c-7.86,1.66-13.54,6.36-14.87,14.28-.71,4.27-2.58,7.26-5,10.44-8.19,11-7.25,23.09,2.58,32.15a9.12,9.12,0,0,1,2.56,4.62,20.42,20.42,0,0,0,13.39,14.36c3.15,1.12,6.56,1.54,9.86,2.28-1,3.5-2,7-3,10.5-.4,1.35-.62,2.62.55,3.67,2.11,1.86,12.22,1.26,13.5-1.14,4-7.53,10.09-13,16.5-18.43a10.77,10.77,0,0,1,8.73-2.89c8.49.63,16.1-1.41,20.32-9.58C550.78,111.94,552.23,110.38,555.15,111.27Z"/><path class="cls-1" d="M1122.56,269.81q-7.18,7.19-14.62,14.1c-10.1,9.4-21.68,16.54-33.69,22.88a148.68,148.68,0,0,1-45.44,15.65c-24.06,4-47.5,2.1-70.37-6.85-19.69-7.72-36.53-19.7-51.15-34.6a166.73,166.73,0,0,1-46.2-90.37c-6.08-35.68.82-69.62,17-101.71A166.39,166.39,0,0,1,914.29,40.5C935.93,20.74,961,7.06,990.16,2.34c32.41-5.24,63.72-2,93.55,12.77,28.24,14,49.88,34.68,66,61.6a152.62,152.62,0,0,1,19.88,57,146.71,146.71,0,0,1-3.09,58.72c-6.51,24.72-18.64,46.34-33.94,66.46a8,8,0,0,1-4.49,2.93l0-.1c1.26-2.07.13-2.89-1.73-3.33-2.64-5.15-5.28-10.31-8-15.62,5.62-2.18,9.68-5.89,8.87-11.81-.72-5.31,1.23-9.23,3.87-13.14,4.48-6.63,4.29-9-.58-15.73-2-2.74-3.9-5.56-3.26-9.77.84-5.59-.84-10.82-7.27-12.59-6.22-1.71-10.34-6.18-14.51-10.6a9.11,9.11,0,0,0-6.83-3c-4.44-.19-8.6,1.5-13.06,1.19-7.39-.52-7.69-1-5.56-7.84,1.28-4.11,3.17-5.87,7.7-5.44,5.28.5,10.64.09,16,.15,5.81.07,9.84-2.42,11.79-8,2.07-.91,1.46-2.78,1.46-4.33q.06-30.57,0-61.13c0-1.54.63-3.41-1.4-4.36-2.22-5.94-6.57-8.3-12.8-8.14-8.16.21-16.34-.1-24.5.14-3.63.11-5.85-1-8.3-3.9-23.51-27.7-53.54-38.82-88.88-30.85-34.06,7.67-56.15,29.64-66.18,63.25-6.9,23.13-2.27,45.16,7.35,66.45C939.23,201.11,964.77,233,992.9,263c4.82,5.12,9.86,5.07,14.76,0,5.69-5.85,11.1-12,16.55-18.05,6.83-7.64,13.27-15.61,19.59-24.22,2.57,3.47,2,6.84,2,10.07,0,4.9,1.9,8.7,6.52,10.6,2.77,1.13,2.66,2.46,1.43,4.73-2.93,5.41-5.67,10.92-8.43,16.42-1,2-2.9,4.13-1.07,6.41,1.59,2,4,1.16,6.09.75,2.29-.44,4.61-.71,6.88-1.24,2.63-.63,4.36,0,5.56,2.61a95,95,0,0,0,5,9.18c1.78,3,3.86,2.94,5.76.11a34.88,34.88,0,0,0,2-4c3.57-7.17,7.14-14.33,11-22.1.93,1.66,1.43,2.48,1.87,3.34,3.65,7.27,7.22,14.59,11,21.81,2.12,4.07,4.35,4,6.79.11.61-1,1.12-2,1.67-3.07,4.46-8.34,4.46-8.34,13.68-7A4.22,4.22,0,0,1,1122.56,269.81Z"/><path class="cls-2" d="M1122.56,269.81a4.22,4.22,0,0,0-.92-.37c-9.22-1.32-9.22-1.32-13.68,7-.55,1-1.06,2.08-1.67,3.07-2.44,3.93-4.67,4-6.79-.11-3.75-7.22-7.32-14.54-11-21.81-.44-.86-.94-1.68-1.87-3.34-3.88,7.77-7.45,14.93-11,22.1a34.88,34.88,0,0,1-2,4c-1.9,2.83-4,2.87-5.76-.11a95,95,0,0,1-5-9.18c-1.2-2.65-2.93-3.24-5.56-2.61-2.27.53-4.59.8-6.88,1.24-2.13.41-4.5,1.22-6.09-.75-1.83-2.28.06-4.4,1.07-6.41,2.76-5.5,5.5-11,8.43-16.42,1.23-2.27,1.34-3.6-1.43-4.73-4.62-1.9-6.51-5.7-6.52-10.6,0-3.23.53-6.6-2-10.07-6.32,8.61-12.76,16.58-19.59,24.22-5.45,6.08-10.86,12.2-16.55,18.05-4.9,5-9.94,5.09-14.76,0-28.13-30-53.67-61.86-70.75-99.67C912.53,142,907.9,120,914.8,96.85c10-33.61,32.12-55.58,66.18-63.25,35.34-8,65.37,3.15,88.88,30.85,2.45,2.89,4.67,4,8.3,3.9,8.16-.24,16.34.07,24.5-.14,6.23-.16,10.58,2.2,12.8,8.14q0,34.91-.07,69.82c-2,5.58-6,8.07-11.79,8-5.32-.06-10.68.35-16-.15-4.53-.43-6.42,1.33-7.7,5.44-2.13,6.84-1.83,7.32,5.56,7.84,4.46.31,8.62-1.38,13.06-1.19a9.11,9.11,0,0,1,6.83,3c4.17,4.42,8.29,8.89,14.51,10.6,6.43,1.77,8.11,7,7.27,12.59-.64,4.21,1.26,7,3.26,9.77,4.87,6.73,5.06,9.1.58,15.73-2.64,3.91-4.59,7.83-3.87,13.14.81,5.92-3.25,9.63-8.87,11.81l8,15.63c.63,1.07.36,2.63,1.73,3.32l0,.1a3.86,3.86,0,0,0,.1.49c.75,2.23,3.22,4.34,1.38,6.82S1124.92,269.83,1122.56,269.81Zm-73.22-4.09c3-.4,5.94-.66,8.85-1.26,3.39-.7,5.7.09,7.18,3.47,1.37,3.13,3.21,6.06,5.19,9.74,2.16-4.26,4-7.92,5.89-11.6s3.59-7.11,6-12c-9.14,4.08-14.3.45-18.39-6a14.06,14.06,0,0,0-2.8-2.81c-1.37-1.17-2.6-1.34-3.46.65-2.81,6.53-7,12.41-9,19.3l-.35.61ZM1068,68.25a23.84,23.84,0,0,0-1.42-2.07c-20-22.88-45.23-34.1-75.47-30.46C934.9,42.48,901.9,98,921.48,151.09c7.32,19.83,17.86,37.83,29.79,55.13a439.15,439.15,0,0,0,43.22,53c4.47,4.71,6.82,5.05,10.44,1.24,12.14-12.82,23.92-26,34.44-40.19,1.11-1.49,2.17-2.95,1-4.95-3-5-.63-9.39,2.28-13.12a15.43,15.43,0,0,0,3.28-10.56c-.16-7.47,1.44-9.95,8.49-12.63,4.79-1.82,9-4.14,11.87-8.57a8.26,8.26,0,0,1,3.14-3.15c5.7-2.45,6.22-8,8.65-13.15-7,0-13.44.29-19.87-.1-4.56-.28-7.47,1.14-10.48,4.71-20.64,24.49-57.56,28.85-84,10.21s-34.12-53.23-17.89-81.53a14.27,14.27,0,0,0,2-7.53c-.08-7.67,3.87-11.53,11.68-11.64a10.35,10.35,0,0,0,6.11-1.52,60.88,60.88,0,0,1,68.93,0,8.37,8.37,0,0,0,5,1.54C1048.77,68.22,1057.94,68.25,1068,68.25Zm-36,3.93q-35.73,0-71.46,0c-6.86,0-8.9,2.08-8.89,9q0,30,.1,60c0,7.26,1.92,9.16,9.12,9.16q70.71,0,141.43,0c7.31,0,9.45-2.14,9.45-9.52q0-29.49,0-59c0-7.65-1.94-9.58-9.81-9.58Zm66.54,180c2.65-.09,4.35-1.79,5.7-3.66a25.66,25.66,0,0,1,13.9-10c4-1.17,5.58-4.27,5.4-8a22.19,22.19,0,0,1,5.31-15.67c2.32-2.83,2.36-5.85.06-8.67a24.24,24.24,0,0,1-5.58-16.16c.06-3.79-1.68-6.44-5.35-7.48a24.37,24.37,0,0,1-13.84-10c-2-3-4.87-3.86-8.31-2.71a27.91,27.91,0,0,1-18.14-.06,6.31,6.31,0,0,0-7.87,2.62c-3.48,5.26-8.4,8.42-14.26,10.35-3.83,1.26-5.66,3.94-5.46,7.94a21.32,21.32,0,0,1-4.82,14.84c-2.73,3.44-2.68,7.11.16,10.5a20.13,20.13,0,0,1,4.65,14.36c-.18,4.18,1.66,7,5.77,8.25a24.15,24.15,0,0,1,13.41,9.85c2.08,3.14,5,4.09,8.69,3,4-1.16,8.14-1.89,12.33-1.11C1093,250.82,1095.76,251.57,1098.5,252.21ZM953.89,154.66c30.7,35.2,76.62,22.6,91.63-.21C1038.7,153.89,958.73,154,953.89,154.66Zm171.84,111.58c-3.07-6.23-5.86-11.86-8.61-17.51s-3.37-5.87-7-1.11c-4.69,6.14-9.63,10.64-18.87,6.8l11.46,23.38c1.9-3.4,3.56-5.85,4.7-8.53,1.86-4.35,4.54-6.09,9.32-4.5C1119.35,265.64,1122.24,265.7,1125.73,266.24ZM1028.92,68.07c-16-10.88-42.79-10.82-57.56,0Zm-81.44,75.6V93.73C939.19,105.62,939.23,130.89,947.48,143.67Z"/><path class="cls-2" d="M263,267.66a25.66,25.66,0,0,1-7.11-5.39q-19.18-19.35-38.39-38.67c-3.48-3.49-5.76-7.42-4.82-12.48.73-3.88-2.51-5.17-4.42-7.19-5.68-6-5.73-5.84-12.89-1.68-3.15,1.83-6.31,4-9.76,4.89-5.83,1.52-6.72,4.74-5.72,10.11,1.32,7,1.83,14.19,2.69,21.3,1.08,8.91-3,13.76-12,14.76q-36.24,4.06-72.42,8.42c-9.51,1.14-14.45-2.6-15.48-12.2-1.54-14.4-3.23-28.78-4.54-43.2-.32-3.55-2.44-2-3.76-1.87-8.44.94-16.86,2-25.27,3.18-9.3,1.25-14.26-2.63-15.34-11.84Q31.6,177,29.14,158.14c-1.29-9.81,2.52-14.71,12.47-15.83,11.58-1.3,23.14-2.8,34.73-3.91,3-.29,3.35-1.54,3.47-4.07C81.44,98.89,105.38,70.42,140,62.8a67.33,67.33,0,0,1,26.79-.68c3.33.61,4.57-.07,4.9-3.71,1.42-16,3.17-17.58,19.1-16.1,23.38,2.18,46.72,4.67,70.07,7.12,7.86.83,11.79,5.18,11.15,13-1.17,14.44-2.64,28.86-4.27,43.25-.69,6.07-5.89,9.71-12.23,9.09-9.09-.88-18.17-1.87-27.78-2.87,2.55,8.81,4.22,17.21,4.12,25.88-.18,15.58-4.5,29.85-13.65,42.51-1.79,2.47-2.07,4.08.4,6.08a43.2,43.2,0,0,1,4.53,4.64c2.16,2.37,4.19,4.16,8,3.59s7.31,1.82,10.11,4.62q21,21.09,41.91,42.18c4,6.94,4.55,13.93-.49,20.52S270.76,269.86,263,267.66ZM155.87,209.51c39.32.32,71.76-32,72-71.68A72.18,72.18,0,1,0,83.54,137C83.33,176.7,115.72,209.19,155.87,209.51ZM201.62,76.16c10.1,8.17,17.9,17.55,23,29a4.4,4.4,0,0,0,4.07,3c9,.85,17.87,1.93,26.81,2.84,4.62.48,7.86-1.85,8.37-6.52q2.34-21.34,4.25-42.73c.44-5-2.08-7.81-7.18-8.35q-38.22-4-76.48-7.93c-3-.31-5.81.54-7.26,3.34-2.21,4.26-1.4,9.12-2.18,13.68-.15.91.68,1.38,1.54,1.67,4,1.36,8,2.76,12.06,4.15,1.2-7.39,3.89-10.74,9-11,4.69-.23,8,2,9.65,6.39S207.17,72.08,201.62,76.16ZM135.77,210.84a82.66,82.66,0,0,1-20.9-9.46c-1.52-.94-2.92-1.81-5-1.49-7.55,1.16-15.13,2.27-22.74,2.88-4.66.38-5.43,2.72-5,6.62,1.58,13.2,3,26.42,4.61,39.63.93,7.81,3.55,9.65,11.19,8.73q35.64-4.27,71.3-8.35c8.28-.94,10.46-3.48,9.4-11.62-1-7.58-2.08-15.16-2.71-22.77-.29-3.47-1.29-4-4.59-3.29-12.38,2.7-25.22,1-37.64,3.6-1.05.22-2.49.38-2.88-1.17-.42-1.7.77-2.36,2.14-2.74C133.67,211.21,134.41,211.11,135.77,210.84ZM92.28,178.77c-2.61-2.47-2-6.74-6.49-6.56-1.17,0-2.48.27-2.94-1.18s.25-2.37,1.81-2.91c2.26-.78.56-2.36.08-3.08-3.79-5.77-3.88-12.51-4.52-18.9-.42-4.22-1.93-4.32-5.16-3.89C64,143.7,52.93,145,41.86,146.33c-7.75.91-9.78,3.46-8.8,11.21q2.38,18.83,4.74,37.66c.93,7.57,3.78,9.67,11.39,8.62,9.56-1.32,19.15-2.43,28.72-3.67s19.25-2.56,29.16-3.88c-2.13-2.22-3.91-3.92-5.5-5.78-4.06-4.72-7.58-10.39-15.39-7.34a1.69,1.69,0,0,1-2.39-1.73c0-1.47,1.13-1.94,2.36-2.08C87.9,179.13,89.67,179,92.28,178.77Zm190.09,72.81a12.84,12.84,0,0,0-3.55-9.06c-13.62-13.69-27.15-27.47-40.95-41-4.83-4.73-8.42-4.27-13.31.55-1.42,1.41-2.83,2.82-4.22,4.26-5.24,5.43-5.37,9,0,14.49,10.12,10.36,20.38,20.58,30.6,30.85,3.4,3.42,6.63,7.05,10.27,10.19a11.68,11.68,0,0,0,13.52,1.67C279.59,261.13,282.11,257,282.37,251.58Zm-58.69-54.16c-.61-.78-1.05-1.46-1.6-2a62.09,62.09,0,0,1-4.83-5c-2.5-3.34-4.3-3.36-7.09,0-4.45,5.42-4.7,5.21.35,10.26a7.81,7.81,0,0,0,1.43,1.39c1.46.86,2.31,3.9,4.05,2.75C218.84,202.87,221,200,223.68,197.42ZM204,66.35c-.51-3.36-2.51-5.25-6-5.12-3.65.14-5.32,2.47-5.2,5.91.13,3.6,2.41,5.42,5.85,5.28S203.77,69.87,204,66.35Z"/><path class="cls-2" d="M753.15,161.42l85.92-.16h5.42c-2.82-4.1-6.9-6.07-8.52-10.19,4.57,2.51,8,6.35,11.58,10a1.5,1.5,0,0,1,0,2.23A107.68,107.68,0,0,1,836,173.71c1.33-4.37,5.45-6.46,8.61-10.45H839q-40.46,0-80.93.07c-1.66,0-3.33-.14-5-.21C753.1,162.55,753.13,162,753.15,161.42Z"/><path class="cls-2" d="M323.27,161.48l81.47-.19h9.7C412,157,407.77,155.13,406.2,151c4.61,2.57,8,6.57,11.54,10.28a1.56,1.56,0,0,1-.22,2.25,111,111,0,0,1-11.31,10.2c1.11-4.49,5.7-6.21,7.87-10-1.69-1.07-3.37-.54-4.94-.54q-40,0-80,.06c-2,0-4-.15-6-.23C323.2,162.55,323.24,162,323.27,161.48Z"/><path class="cls-2" d="M753.15,161.42c0,.57,0,1.13-.07,1.7l-11.19.17c-1-.69-1-1.38,0-2.08Z"/><path class="cls-2" d="M323.27,161.48c0,.53-.07,1.07-.1,1.6l-10.26.24c-1-.72-1-1.44,0-2.16Z"/><path class="cls-2" d="M626.46,184.11c-2.72,1.16-3.46-.59-4.13-2.69a85,85,0,0,1-3.9-18.5c-.26-3.07-1.51-3.75-4.39-3.66a54.89,54.89,0,0,0-18.82,4.41c-1.75.71-2.35,1.52-1.76,3.75,3,11.31-.17,21-8.42,29.13-10.31,10.17-20.46,20.52-31,30.45-2.26,2.13-.33,2.5.44,3.26,9.62,9.45,10,23.2.82,32.79a22.53,22.53,0,0,1-32.6.29c-2.82-2.82-4-1.92-6,.43-8.47,9.67-18.92,14.12-31.68,10.5-20.18-5.71-27.53-30.75-13.29-46.12,10.64-11.47,22.05-22.23,33.2-33.22,4.15-4.09,9.41-6.12,15-7.34a35.34,35.34,0,0,1,14.76,2.16c3.61,1.64,6.6,4.15,9.61,6.65l1.6,1.84h0l.92,1.23a.77.77,0,0,0,.35.81l.68,1.08-.06,2.87c-.87.22-1.45,1.32-2.55.8-5.69-12.84-23.59-18.86-35-9.26a305,305,0,0,0-37.1,37c-7.87,9.38-6.4,22.64,2.16,31.37,11.86,12.1,32.75,8.86,41.64-6.43a2.14,2.14,0,0,0,.34-2.26c-1.3-2.8-1.55-5.88-1.76-9.88-2.68,2.8-4.57,4.84-6.53,6.81a84.56,84.56,0,0,1-6.45,6.26,14.92,14.92,0,0,1-19.3,0c-5.56-4.58-7.94-13.34-3.41-18.84a242,242,0,0,1,37-36.89c7.39-5.81,19.53.65,19.91,9.35-2.59.72-3.32-1.29-4.44-2.91-3.51-5-11.27-6.47-15.47-2a32.63,32.63,0,0,0-7,7c-8.18,8.05-16.47,16-24.49,24.21-5.1,5.22-5.05,11.94-.38,16.44,5,4.79,11.28,4.52,16.78-.79,7.64-7.39,15.59-14.52,20-24.79-2.71-2-6.17-4.13-8.3-7.64-1-1.7-2.4-3.34-.45-5.29,3.44.63,4,4.2,6.13,6.15,3.16,2.84,5.79,5.3,10.66,2.62,5.31-2.91,11.26-2.72,16.91-.32,2.07.88,3.74,1,5.4-.73,11.12-11.26,22.51-22.25,33.28-33.83,5.25-5.63,6.54-12.95,4.63-20.6-.32-1.28-.36-3-2.33-2.16-2.49,1.1-5.19.11-7.69.8,1.61,5.57,2.43,11.13-1.51,15.48a419,419,0,0,1-33.15,33.22c-7.63,6.71-19.4,2.73-22.66-6.82,2.8-3.08,3.57.45,4.72,1.64,5,5.13,9.57,5.59,15.63,1.91,3.18-1.93,4.52-5.34,7.21-7.58l1.68-1.12c.67.16.91-.26,1.06-.79l0,0,1-1.05,0,0,1-1,0,0,1-1,0,0,1-1,0,0c.34-.34.69-.68,1-1l0,0,1-1,0,0,1-1,0,0,1-1,0,0,1-1h0l1-1h0l1-1,0,0,1-1,0,0,1-1,0,0,1-1,0,0,1-.95,0,0,1-1h0l1-1,0,0,1.06-1,0,0,1.07-1-.06.06,1.06-1.06-.06.06,1-1.08,0,0,.91-1.09,0,0A2.18,2.18,0,0,0,576,180.3l0,.09a9.42,9.42,0,0,0,0-10.27l0,.08a2.16,2.16,0,0,0-1.15-1.95h0l-1-1.07,0,0-1.07-1h0a2.12,2.12,0,0,0-1.94-1.13l.08,0a9.23,9.23,0,0,0-9.66,0c-3.33,1.32-5.38,4.2-7.87,6.52-5.27,4.92-9.75,10.66-15.62,15a1.91,1.91,0,0,0-1,0l-1-.4c-.67-2,.62-3.07,1.82-4.26,5.31-5.29,10.68-10.52,15.87-15.92,5.36-5.56,11.49-7.66,19.2-4.65,0-2.26-.54-4.43.11-6.16,1.53-4.09-1-4.31-3.73-4.58a24.41,24.41,0,0,0-20.47,7.16c-7.68,7.63-15.33,15.29-23,22.88-1.61,1.59-3,3.73-5.73,3.49-1.95-2.08-.07-3.33,1.13-4.53,8.24-8.25,16.42-16.57,24.86-24.62,7.65-7.28,16.86-9.85,27.19-7.45a7,7,0,0,0,6.37-1.16,61.81,61.81,0,0,1,40-11.48c6.81.38,13.08-2.34,19.79-2,2.76.15,1.43-2.4,1.7-3.79.34-1.79-.61-2.31-2.29-2.22-2.5.12-5,.14-7.5.08-10.46-.26-16.77-6.08-17.55-16.47-.17-2.18-.74-3-2.9-3.72-4.6-1.43-7.05-4.75-7-9.74,0-3.17-.1-6.34,0-9.5.18-4.27,2.35-7.46,6.44-8.51,2.94-.75,3.28-2.17,3.4-4.79.46-9.62,7.14-16,16.74-16.22,6.67-.13,13.34.13,20-.06,1.64-.05,4.73,1.53,4.79-1.62,0-2.78,1.84-6.24-2-8.46s-5.56-5.81-3.84-10.2c1.37-3.49,3.9-5.79,8-5.67a7.84,7.84,0,0,1,7.55,5.52c1.37,3.65.84,7.48-2.5,9.33-3.63,2-3.25,4.78-3.46,7.89-.17,2.76.94,3.38,3.46,3.33,6.83-.14,13.66-.09,20.5,0,10.86.07,17.46,6.18,18,17,.14,2.4.62,3.77,3.18,3.93a4.29,4.29,0,0,1,1.86.63c7.11,4.41,4.44,11.51,4.72,17.72.19,4.4-1.89,7.8-6.28,9.13-2.28.68-3.41,1.36-3.51,4.15-.33,9.35-6.26,15.33-15.65,16.22-2.65.25-5.33.12-8,.12-2,0-3.93-.46-3.87,2.83.06,2.8,1.15,3.26,3.59,3.2,5.53-.14,10.94,1.15,16.22,2.44,12,2.94,21.69,18.57,19.59,30.82-.4,2.32-1.56,2.7-3.5,1.77-.32-5-.81-10-2.48-14.73-2.48-7-7-12.06-15.31-14.49,2.8,3.74,4.07,7,4.26,10.54.08,1.63,1,4.22-1.71,4.36-2.3.12-1.83-2.32-2-3.86-1.2-8.39-5.46-12.84-13.66-13-14-.29-28-.37-42,0-9.22.23-14.17,5.67-14.68,14.94-.24,4.5.39,9,.7,13.45C622.82,171.8,626.35,177.57,626.46,184.11Zm30.8-60.89c4.33,0,8.66,0,13,0s8.67.09,13,0c8.63-.11,13.8-4.93,14-13.51q.31-16.74,0-33.49c-.19-9.6-5-14.21-14.72-14.31q-25.5-.24-51-.11c-8.89,0-14.07,5.06-14.23,13.86q-.32,17,0,34c.17,8.55,5.36,13.4,14,13.51S648.59,123.22,657.26,123.22Zm-137.65,123c.08,11.54,8.16,20,19.06,20s19.36-8.7,19.26-19.86c-.09-10.91-8.64-19.57-19.17-19.42C527.66,227.15,519.54,235.32,519.61,246.26Zm79.34-88a45.1,45.1,0,0,1,16.23-2.49c1.28,0,2.85.59,2.68-1.63-.46-5.66,1.29-10.73,4.74-15.78-11.06.1-21.23,1.09-31.62,5.85C596.85,147.49,598.51,152.4,599,158.26Zm-14.84,6c5-.06,10.7-4.28,10.61-7.81-.12-4.47-4.39-9.83-7.8-9.78-3.87.07-10.57,7-10.42,10.76C576.67,161.6,579.66,164.29,584.11,164.24Zm73-31.09c3.31,0,6.62-.11,9.93,0,2.22.09,2.81-.78,2.79-2.89s-.29-3.38-2.91-3.31c-6.29.15-12.59.09-18.87,0-2.16,0-3.29.28-3.3,2.89s.85,3.49,3.42,3.32C651.13,133,654.12,133.15,657.1,133.15Zm-43.51-40h0c0-2.32.12-4.66,0-7-.09-1.3.93-3.41-1.19-3.68a4,4,0,0,0-4.25,2.88,35.71,35.71,0,0,0-.09,14.81,4,4,0,0,0,4.21,2.92c2.64-.27,1.09-2.61,1.27-4A45.83,45.83,0,0,0,613.59,93.16Zm93.32-.68c-.5-3.07,1.15-7-2.63-9.31-1.75-1.09-3.41-1.84-3.34,1.53.13,5.3,0,10.61.12,15.92,0,.9-.51,2.12.74,2.59s2.21-.41,3.08-1.16C707.91,99.45,706.5,95.88,706.91,92.48ZM657.22,45.25c2.87-.47,4.57-2.19,4.35-5a4.18,4.18,0,0,0-4.65-4.15c-3.14.08-4.39,2-4.23,4.9C652.85,43.72,654.55,45,657.22,45.25Z"/><path class="cls-2" d="M705.75,174.67c.09.52.19,1.05.28,1.57a39.07,39.07,0,0,1-.48,13.89l.08-.12-1.26,3.13c-3.23,7.22-9.27,12.09-14.63,17.52-5.15,5.22-10.26,10.49-15.61,15.5-2.21,2.07-2.51,3.14-.41,5.79a23.35,23.35,0,0,1-14.78,37.92,21.06,21.06,0,0,1-19.15-6.32c-2.09-2.16-3.06-1.8-4.85.19-3.22,3.6-6.68,7-10.19,10.31a28.55,28.55,0,0,1-40.45-.51c-11.06-11-11.29-27.83-.11-39.51,10.37-10.82,21.12-21.3,31.78-31.85,4.65-4.6,10.45-7,16.84-8l10.15,1a29.16,29.16,0,0,1,15,11.35c1.13,1.68,2.77,3.46.78,5.65-1.62,0-2.17-1.28-2.94-2.36-9.93-14-25.87-15.74-38.1-3.91Q602,221.13,586.72,237c-9.51,9.88-9.12,24.29.49,34.09a24.3,24.3,0,0,0,34.19.81c4.17-3.83,8-8,12-12,.93-.93,1.95-1.71,1.31-3.39-1-2.65-1.79-5.39-3.15-9.61-6.1,6.55-11.24,12.72-17.07,18.15a14.79,14.79,0,0,1-20.39-.36c-5.89-5.66-6.75-14.54-1-20.66,10.76-11.34,21.81-22.44,33.26-33.1,6.41-6,16.62-3.72,21.15,3.75,1,1.71,2.18,3.52-.06,5.24-1.85-.65-2.65-2.38-3.81-3.74-5-5.9-11.16-6.28-16.72-.93-2.25,2.17-4.28,4.56-6.41,6.85-8,7.92-16.19,15.72-24.08,23.79-4.7,4.82-4.54,11.06-.13,15.59s10.69,5.22,15.63.73c7-6.36,13.76-13,20.19-20,2.12-2.28,3.93-5.63-1-8.13a16.48,16.48,0,0,1-7.64-8.9c.13-.94.11-1.95,1.19-2.41,2.15.25,2.75,2.15,3.82,3.56,5.39,7.15,6.83,7.32,13.19,1.64.44-.4,1.22-.42,1.8-.6-4.14-3.67-9.6-4.86-8.5-11,2.17-.6,2.81,1.21,3.83,2.43,2.58,3.08,5.65,5.07,9.9,4.37,5.45.17,8-4,11.11-7.38q12.19-12,24.4-24.07c2-2,3.95-4,4.61-6.93a12,12,0,0,0-5.13-12.55,10.34,10.34,0,0,0-13.28,1.19c-6.21,5.75-12,11.89-18.11,17.79-1.19,1.15-2.13,3.28-4.47,1.93-.8-1.92.37-3.05,1.6-4.27,5.79-5.74,11.44-11.62,17.3-17.29,6.6-6.36,15.74-6.36,21.85-.21s6,14.91-.15,21.49c-3.74,4-7.68,7.85-11.59,11.7-6.11,6-12.28,11.92-18.71,18.16,3.29,1.34,5.67,2.09,7.83,3.25,1.76.93,2.73.23,3.86-.93,8.87-9,18.07-17.72,26.54-27.1,6.79-7.52,8.22-16.6,3.84-26-4.29-9.2-11.63-14.24-21.92-14.74-8.17-.39-14.26,3.58-19.74,9.07-8.45,8.46-16.68,17.16-25.78,24.95a2.92,2.92,0,0,1-1.92-2.74c8.94-8.88,17.82-17.81,26.83-26.62s21.27-10.85,32.56-5.54c6.78,3.19,11,8.8,14.4,15.19a.51.51,0,0,0,.19.68C704.89,173.16,704.77,174.09,705.75,174.67ZM656,227.23A19.34,19.34,0,0,0,636.5,246c-.3,10.84,8.1,20.11,18.41,20.3a19.52,19.52,0,0,0,1-39Z"/><path class="cls-3" d="M704.77,171.57c-3.4-6.39-7.62-12-14.4-15.19-11.29-5.31-23.51-3.3-32.56,5.54S639.92,179.66,631,188.54c.14-3.16-1.48-4.52-4.52-4.43-.11-6.54-3.64-12.31-4.1-18.82-.31-4.48-.94-8.95-.7-13.45.51-9.27,5.46-14.71,14.68-14.94,14-.34,28-.26,42,0,8.2.18,12.46,4.63,13.66,13,.22,1.54-.25,4,2,3.86,2.74-.14,1.79-2.73,1.71-4.36-.19-3.56-1.46-6.8-4.26-10.54,8.32,2.43,12.83,7.46,15.31,14.49,1.67,4.74,2.16,9.74,2.48,14.73C706.91,168.15,704.94,168.68,704.77,171.57Z"/><path class="cls-2" d="M555.15,111.27c-2.92-.89-4.37.67-5.91,3.65-4.22,8.17-11.83,10.21-20.32,9.58a10.77,10.77,0,0,0-8.73,2.89c-6.41,5.43-12.48,10.9-16.5,18.43-1.28,2.4-11.39,3-13.5,1.14-1.17-1.05-.95-2.32-.55-3.67,1.05-3.49,2-7,3-10.5-3.3-.74-6.71-1.16-9.86-2.28a20.42,20.42,0,0,1-13.39-14.36,9.12,9.12,0,0,0-2.56-4.62c-9.83-9.06-10.77-21.18-2.58-32.15,2.37-3.18,4.24-6.17,5-10.44,1.33-7.92,7-12.62,14.87-14.28a7,7,0,0,0,5.07-3.2c5.91-8.9,15.71-11.63,25.35-7,2.31,1.11,3.81.75,5.87-.17,9.33-4.15,18.65-2.13,25.27,5.59a6.1,6.1,0,0,0,5.11,2.23c9.74.32,16.5,6.11,18.32,15.79a10.65,10.65,0,0,0,3.07,5.45c6.66,7.32,8.46,15.69,4.66,24.94C573.49,106.38,565.12,111.38,555.15,111.27ZM488,108.77c-.1-2.57-.19-5.15-.29-7.72,2.76-.58,2.76-.58,3.24,2.72,1.34,9,9.53,13.88,17.63,10.07,2.45-1.15,3.67-.71,5.55.79,6.51,5.22,13.79,7.82,22.27,5.84,11.57-2.69,15.18-16.77,6.48-22.85-1.22-.86-2-1.88-.91-3.27s2.49-.41,3.45.38a14.39,14.39,0,0,1,5.53,9.7c.19,1.68.62,2.61,2.57,2.95,7.29,1.29,15.54-2.53,19.07-9.07,3.88-7.18,2.78-16.37-2.64-21.8-.73-.73-1.57-2.31-2.67-.69-2.54,3.72-9.35,5.28-6.15,12A2.15,2.15,0,0,1,559.7,91c-2,.31-1.89-1.35-2.1-2.66s-.09-2.92-.82-3.86c-2.73-3.51-.91-4.78,2.23-6.45,7.83-4.2,8.71-10.45,2.83-17.15-4.05-4.61-9.2-5.58-15-4.62L545.07,56c-4.45-8.06-12-11.62-19.87-9.31-2.9.85-6.07,1.56-2.71,5.72,1.16,1.44,1.36,3.7,1.82,5.63.39,1.6.92,3.74-1.29,4.16-2.58.49-2-1.92-2.33-3.44-1.18-6.61-5.13-10.77-11.57-12.24s-11.79.71-16.06,5.69c-1.33,1.55-1.82,2.5.89,3.31a14,14,0,0,1,8.91,7.5c.63,1.33,2.32,3.07,0,4.24-1.86.94-2.52-.79-3.22-2.16-3-5.85-8.07-7.58-14.22-6.84s-10,4.3-12.16,9.8c-1.5,3.84-.76,7.32,2.28,10.52s4.84.3,7.12-.88c1.32-.68,3.06-1.34,3.92.42s-.94,2.2-2.05,2.84c-3.26,1.88-4.5,4.76-4.17,8.38.13,1.45.15,2.83-1.73,2.88a1.88,1.88,0,0,1-1.84-2.44c1.61-6.25-3.89-7.92-6.65-11.52-10.58,11.92-10.09,21.16,1.42,31.92a4.17,4.17,0,0,1,1.28,2.53c2.21,11.08,9.73,16.8,20.62,15.15,4.17-.63,4.26,1,3.45,4q-1.61,6-3.17,11.9c4.61,1.39,7.38.15,9.52-4a33.25,33.25,0,0,1,10.23-11.45c2.21-1.62,4.68-3,6-5.42-2.33-1.55-4.58-2.95-6.73-4.5-1.11-.8-1.95-1.33-3.54-.9C498.92,120.2,494.24,118.22,488,108.77Z"/><path class="cls-4" d="M643,195.13l-10.15-1,.09-2.87c9.1-7.79,17.33-16.49,25.78-24.95,5.48-5.49,11.57-9.46,19.74-9.07,10.29.5,17.63,5.54,21.92,14.74,4.38,9.39,2.95,18.47-3.84,26-8.47,9.38-17.67,18.08-26.54,27.1-1.13,1.16-2.1,1.86-3.86.93-2.16-1.16-4.54-1.91-7.83-3.25,6.43-6.24,12.6-12.17,18.71-18.16,3.91-3.85,7.85-7.69,11.59-11.7,6.13-6.58,6.12-15.49.15-21.49s-15.25-6.15-21.85.21c-5.86,5.67-11.51,11.55-17.3,17.29-1.23,1.22-2.4,2.35-1.6,4.27Z"/><path class="cls-5" d="M534.67,189.75a35.34,35.34,0,0,0-14.76-2.16c0-1.13,0-2.26,0-3.39,2.76.24,4.12-1.9,5.73-3.49,7.71-7.59,15.36-15.25,23-22.88a24.41,24.41,0,0,1,20.47-7.16c2.77.27,5.26.49,3.73,4.58-.65,1.73-.11,3.9-.11,6.16-7.71-3-13.84-.91-19.2,4.65-5.19,5.4-10.56,10.63-15.87,15.92-1.2,1.19-2.49,2.3-1.82,4.26Z"/><path class="cls-3" d="M705.55,190.13a39.07,39.07,0,0,0,.48-13.89C708.84,179.32,708.64,184.93,705.55,190.13Z"/><path class="cls-3" d="M704.37,193.14l1.26-3.13C705.84,191.31,706.08,192.62,704.37,193.14Z"/><path class="cls-3" d="M705.75,174.67c-1-.58-.86-1.51-.79-2.42A2.39,2.39,0,0,1,705.75,174.67Z"/><path class="cls-6" d="M1115.39,146.17q0-34.92.07-69.82c2,1,1.39,2.82,1.4,4.36q0,30.57,0,61.13C1116.85,143.39,1117.46,145.26,1115.39,146.17Z"/><path class="cls-6" d="M1128,261.7c-1.37-.69-1.1-2.25-1.73-3.32C1128.12,258.81,1129.25,259.63,1128,261.7Z"/><path class="cls-6" d="M1068,68.25c-10.07,0-19.24,0-28.4,0a8.37,8.37,0,0,1-5-1.54,60.88,60.88,0,0,0-68.93,0,10.35,10.35,0,0,1-6.11,1.52c-7.81.11-11.76,4-11.68,11.64a14.27,14.27,0,0,1-2,7.53c-16.23,28.3-8.63,62.82,17.89,81.53s63.32,14.28,84-10.21c3-3.57,5.92-5,10.48-4.71,6.43.39,12.89.1,19.87.1-2.43,5.12-3,10.7-8.65,13.15a8.26,8.26,0,0,0-3.14,3.15c-2.87,4.43-7.08,6.75-11.87,8.57-7,2.68-8.65,5.16-8.49,12.63a15.43,15.43,0,0,1-3.28,10.56c-2.91,3.73-5.31,8.13-2.28,13.12,1.22,2,.16,3.46-1,4.95-10.52,14.22-22.3,27.37-34.44,40.19-3.62,3.81-6,3.47-10.44-1.24a439.15,439.15,0,0,1-43.22-53c-11.93-17.3-22.47-35.3-29.79-55.13C901.9,98,934.9,42.48,991.12,35.72c30.24-3.64,55.45,7.58,75.47,30.46A23.84,23.84,0,0,1,1068,68.25Z"/><path class="cls-6" d="M1032,72.18h70c7.87,0,9.81,1.93,9.81,9.58q0,29.48,0,59c0,7.38-2.14,9.52-9.45,9.52q-70.71,0-141.43,0c-7.2,0-9.1-1.9-9.12-9.16q-.08-30-.1-60c0-6.87,2-8.94,8.89-9Q996.23,72.16,1032,72.18Zm-69.45,39h0c0,6,0,12,0,18,0,6.95,3,10.09,10,10.13,12.13.07,24.27,0,36.41,0,6.32,0,9.6-3.17,9.67-9.48q.2-18.46,0-36.92c-.07-6.31-3.36-9.54-9.63-9.59q-18.45-.15-36.91,0c-6.42,0-9.42,3-9.56,9.48C962.4,98.83,962.51,105,962.51,111.14Zm102.2-3.91c-9.64,0-19.28-.07-28.92,0-1.91,0-5.26-1.19-5.23,1.85,0,2.49,3.28,2.06,5.36,2.06,4.32,0,8.64,0,12.95-.15,4.59-.15,9.25-1.13,13.73-.55,10.62,1.38,21.23.32,31.83.71,1.78.06,4.21.27,4.16-2.29s-2.49-1.63-3.95-1.64C1084.66,107.19,1074.69,107.23,1064.71,107.23Zm-.31-10.5v-.1c10.15,0,20.29,0,30.44,0,1.66,0,4.3.73,4.26-1.95,0-2.31-2.51-1.61-4-1.61Q1064.64,93,1034.2,93c-1.65,0-4.35-.73-4.19,2,.15,2.54,2.8,1.7,4.46,1.71C1044.44,96.76,1054.42,96.73,1064.4,96.73Zm-12.54,24.51c-6.14,0-12.28,0-18.42,0-1.36,0-3,.11-3.13,1.73-.18,2.08,1.63,2.21,3.14,2.21q17.92,0,35.84,0c1.55,0,3.27-.21,3.32-2.15.05-2.33-2-1.78-3.33-1.8C1063.47,121.19,1057.67,121.23,1051.86,121.24Z"/><path class="cls-7" d="M1098.5,252.21c-2.74-.64-5.47-1.39-8.25-1.9-4.19-.78-8.32-.05-12.33,1.11-3.72,1.08-6.61.13-8.69-3a24.15,24.15,0,0,0-13.41-9.85c-4.11-1.29-6-4.07-5.77-8.25A20.13,20.13,0,0,0,1045.4,216c-2.84-3.39-2.89-7.06-.16-10.5a21.32,21.32,0,0,0,4.82-14.84c-.2-4,1.63-6.68,5.46-7.94,5.86-1.93,10.78-5.09,14.26-10.35a6.31,6.31,0,0,1,7.87-2.62,27.91,27.91,0,0,0,18.14.06c3.44-1.15,6.26-.26,8.31,2.71a24.37,24.37,0,0,0,13.84,10c3.67,1,5.41,3.69,5.35,7.48a24.24,24.24,0,0,0,5.58,16.16c2.3,2.82,2.26,5.84-.06,8.67a22.19,22.19,0,0,0-5.31,15.67c.18,3.76-1.42,6.86-5.4,8a25.66,25.66,0,0,0-13.9,10C1102.85,250.42,1101.15,252.12,1098.5,252.21Zm-44.88-41.66c.13,18.79,14.8,33.48,33.22,33.26,18.77-.23,33.29-14.83,33.21-33.41a33.22,33.22,0,0,0-66.43.15Z"/><path class="cls-8" d="M953.89,154.66c4.84-.64,84.81-.77,91.63-.21C1030.51,177.26,984.59,189.86,953.89,154.66Z"/><path class="cls-9" d="M1125.73,266.24c-3.49-.54-6.38-.6-9-1.47-4.78-1.59-7.46.15-9.32,4.5-1.14,2.68-2.8,5.13-4.7,8.53l-11.46-23.38c9.24,3.84,14.18-.66,18.87-6.8,3.63-4.76,4.31-4.41,7,1.11S1122.66,260,1125.73,266.24Z"/><path class="cls-9" d="M1048.82,265.21c2-6.89,6.22-12.77,9-19.3.86-2,2.09-1.82,3.46-.65a14.06,14.06,0,0,1,2.8,2.81c4.09,6.44,9.25,10.07,18.39,6-2.46,4.9-4.25,8.46-6,12s-3.73,7.34-5.89,11.6c-2-3.68-3.82-6.61-5.19-9.74-1.48-3.38-3.79-4.17-7.18-3.47-2.91.6-5.9.86-8.85,1.26C1049.17,265.54,1049,265.37,1048.82,265.21Z"/><path class="cls-8" d="M1028.92,68.07H971.36C986.13,57.25,1012.89,57.19,1028.92,68.07Z"/><path class="cls-8" d="M947.48,143.67c-8.25-12.78-8.29-38,0-49.94Z"/><path class="cls-9" d="M1049.34,265.72l-.87.1.35-.61C1049,265.37,1049.17,265.54,1049.34,265.72Z"/><path class="cls-5" d="M155.87,209.51c-40.15-.32-72.54-32.81-72.33-72.54a72.18,72.18,0,1,1,144.35.86C227.63,177.55,195.19,209.83,155.87,209.51Zm0-132.5c-33.5-.05-60.29,26.35-60.41,59.54-.13,33.87,26.64,61.23,60,61.29A60.42,60.42,0,0,0,155.92,77Z"/><path class="cls-10" d="M201.62,76.16c5.55-4.08,7.3-8.07,5.64-12.44s-5-6.62-9.65-6.39c-5.12.25-7.81,3.6-9,11-4-1.39-8-2.79-12.06-4.15-.86-.29-1.69-.76-1.54-1.67.78-4.56,0-9.42,2.18-13.68,1.45-2.8,4.23-3.65,7.26-3.34q38.25,3.93,76.48,7.93c5.1.54,7.62,3.34,7.18,8.35q-1.87,21.39-4.25,42.73c-.51,4.67-3.75,7-8.37,6.52-8.94-.91-17.86-2-26.81-2.84a4.4,4.4,0,0,1-4.07-3C219.52,93.71,211.72,84.33,201.62,76.16Zm50.21,7.26c1.37-.82,4.47,1.47,4.75-1.37s-3.09-2.38-5-2.6c-8.74-1-17.51-1.79-26.26-2.67-1.68-.17-3.7-.59-3.87,1.77-.15,2.07,1.91,1.93,3.31,2.08C233.65,81.58,242.57,82.47,251.83,83.42Zm1.29-11.08c1.49-.51,4.38,1.47,4.58-1.67.16-2.41-2.52-2.12-4.24-2.3-9.08-1-18.18-1.8-27.26-2.73-1.59-.16-3.28-.27-3.57,1.66-.33,2.25,1.67,2,3.06,2.17C234.78,70.44,243.86,71.37,253.12,72.34ZM225.93,88.2a12.55,12.55,0,0,0-1.5-.07c-1.54.1-3.89-.91-4.19,1.35s2.19,2.1,3.68,2.29c4.79.61,9.6,1,14.4,1.47,1.41.13,3.42.7,3.62-1.44.21-2.36-2.05-2.25-3.59-2.43C234.22,88.89,230.07,88.57,225.93,88.2Z"/><path class="cls-10" d="M135.77,210.84c-1.36.27-2.1.37-2.82.57-1.37.38-2.56,1-2.14,2.74.39,1.55,1.83,1.39,2.88,1.17,12.42-2.61,25.26-.9,37.64-3.6,3.3-.72,4.3-.18,4.59,3.29.63,7.61,1.73,15.19,2.71,22.77,1.06,8.14-1.12,10.68-9.4,11.62q-35.65,4-71.3,8.35c-7.64.92-10.26-.92-11.19-8.73-1.58-13.21-3-26.43-4.61-39.63-.47-3.9.3-6.24,5-6.62,7.61-.61,15.19-1.72,22.74-2.88,2.12-.32,3.52.55,5,1.49A82.66,82.66,0,0,0,135.77,210.84ZM99.36,247.48c7.6-.88,15.18-2,22.8-2.57,4.81-.39,5-2.7,3.54-6.32-2.33-5.92-9.72-10.47-16.44-10-7.49.48-13.7,5.28-15.5,12C92.08,246.81,93.09,248.07,99.36,247.48Zm7-19.91c5.79,0,10-4,9.93-9.43a9.32,9.32,0,0,0-9.25-9.09,9.19,9.19,0,0,0-9.56,9.21A9,9,0,0,0,106.33,227.57Zm28.83-1.28,27.61-3c1.77-.19,4.25,0,4-2.53-.29-2.69-2.88-1.64-4.47-1.48-9.05.92-18.08,2-27.11,3-1.46.17-3.33.18-3.28,2.21C132,227.24,134.16,226.18,135.16,226.29Zm2.06,11.08c4.72-.59,9.8-1.22,14.88-1.88,1.28-.16,3-.15,2.66-2.09-.25-1.71-1.72-1.73-3.1-1.59-5.1.52-10.2,1-15.29,1.59-1.44.16-3.42.21-3.36,2.14C133.09,238.05,135.32,237.18,137.22,237.37Z"/><path class="cls-10" d="M92.28,178.77c-2.61.23-4.38.36-6.13.57-1.23.14-2.34.61-2.36,2.08a1.69,1.69,0,0,0,2.39,1.73c7.81-3.05,11.33,2.62,15.39,7.34,1.59,1.86,3.37,3.56,5.5,5.78-9.91,1.32-19.53,2.62-29.16,3.88s-19.16,2.35-28.72,3.67c-7.61,1.05-10.46-1-11.39-8.62q-2.32-18.84-4.74-37.66c-1-7.75,1-10.3,8.8-11.21C52.93,145,64,143.7,75.06,142.25c3.23-.43,4.74-.33,5.16,3.89.64,6.39.73,13.13,4.52,18.9.48.72,2.18,2.3-.08,3.08-1.56.54-2.3,1.34-1.81,2.91s1.77,1.23,2.94,1.18C90.24,172,89.67,176.3,92.28,178.77Zm-31-4.19c-8.83,0-16.6,6.71-17.25,14.8-.27,3.27.48,5,4.43,4.36,8.35-1.32,16.74-2.44,25.16-3.19,3.85-.34,3.87-2.2,3.17-4.94C75.14,179.32,68.41,174.55,61.24,174.58Zm-3.74-1.16c5.55,0,9.5-4,9.42-9.35a9.45,9.45,0,0,0-9.57-9.38,9.71,9.71,0,0,0-9.29,9.78A9.36,9.36,0,0,0,57.5,173.42Z"/><path class="cls-5" d="M282.37,251.58c-.26,5.46-2.78,9.55-7.66,12a11.68,11.68,0,0,1-13.52-1.67c-3.64-3.14-6.87-6.77-10.27-10.19-10.22-10.27-20.48-20.49-30.6-30.85-5.35-5.47-5.22-9.06,0-14.49,1.39-1.44,2.8-2.85,4.22-4.26,4.89-4.82,8.48-5.28,13.31-.55,13.8,13.51,27.33,27.29,40.95,41A12.84,12.84,0,0,1,282.37,251.58Z"/><path class="cls-4" d="M223.68,197.42c-2.64,2.61-4.84,5.45-7.69,7.33-1.74,1.15-2.59-1.89-4.05-2.75a7.81,7.81,0,0,1-1.43-1.39c-5-5.05-4.8-4.84-.35-10.26,2.79-3.38,4.59-3.36,7.09,0a62.09,62.09,0,0,0,4.83,5C222.63,196,223.07,196.64,223.68,197.42Z"/><path class="cls-4" d="M204,66.35c-.24,3.52-1.78,5.92-5.35,6.07s-5.72-1.68-5.85-5.28c-.12-3.44,1.55-5.77,5.2-5.91C201.5,61.1,203.5,63,204,66.35Z"/><path class="cls-3" d="M657.26,123.22c-8.67,0-17.33.08-26,0s-13.86-5-14-13.51q-.33-17,0-34c.16-8.8,5.34-13.81,14.23-13.86q25.5-.14,51,.11c9.74.1,14.53,4.71,14.72,14.31q.34,16.74,0,33.49c-.16,8.58-5.33,13.4-14,13.51-4.33,0-8.66,0-13,0S661.59,123.22,657.26,123.22Zm.11-52.14v0c-5.83,0-11.67-.19-17.49,0-9.71.38-14.7,5.32-15.14,14.89-.21,4.65-.15,9.33,0,14,.28,9.19,5.36,14.84,14.44,15.11,12.15.36,24.32.31,36.47,0,7.6-.18,12.32-4.57,13.6-12.14a61.87,61.87,0,0,0,.14-18.92c-1.13-8.23-6.12-12.6-14.53-13C669,70.86,663.2,71.08,657.37,71.08Z"/><path class="cls-5" d="M536.79,212.21c-.38-8.7-12.52-15.16-19.91-9.35a242,242,0,0,0-37,36.89c-4.53,5.5-2.15,14.26,3.41,18.84a14.92,14.92,0,0,0,19.3,0,84.56,84.56,0,0,0,6.45-6.26c2-2,3.85-4,6.53-6.81.21,4,.46,7.08,1.76,9.88a2.14,2.14,0,0,1-.34,2.26c-8.89,15.29-29.78,18.53-41.64,6.43-8.56-8.73-10-22-2.16-31.37a305,305,0,0,1,37.1-37c11.38-9.6,29.28-3.58,35,9.26Z"/><path class="cls-11" d="M519.61,246.26c-.07-10.94,8-19.11,19.15-19.27,10.53-.15,19.08,8.51,19.17,19.42.1,11.16-8.33,19.85-19.26,19.86S519.69,257.8,519.61,246.26Zm16.17,8.7a8.2,8.2,0,0,0,1.78-1.16q5.79-6.13,11.48-12.36c.83-.91,1.35-2,.28-3.05s-2.2-.43-3,.38a83.42,83.42,0,0,0-6.18,6.44c-2.72,3.31-5.23,6.34-9,1.16a1.91,1.91,0,0,0-2.65-.57,2.42,2.42,0,0,0-1,1.56C527.32,248.86,533.92,255.05,535.78,255Z"/><path class="cls-9" d="M509.86,214.28a32.63,32.63,0,0,1,7-7c.78,3.21,3.4,2.84,5.76,3,3.26,9.55,15,13.53,22.66,6.82a419,419,0,0,0,33.15-33.22c3.94-4.35,3.12-9.91,1.51-15.48,2.5-.69,5.2.3,7.69-.8,2-.88,2,.88,2.33,2.16,1.91,7.65.62,15-4.63,20.6-10.77,11.58-22.16,22.57-33.28,33.83-1.66,1.69-3.33,1.61-5.4.73-5.65-2.4-11.6-2.59-16.91.32-4.87,2.68-7.5.22-10.66-2.62-2.17-1.95-2.69-5.52-6.13-6.15C512.29,215.19,511,214.85,509.86,214.28Z"/><path class="cls-8" d="M509.86,214.28c1.14.57,2.43.91,3.11,2.14-2,2-.59,3.59.45,5.29,2.13,3.51,5.59,5.59,8.3,7.64-4.36,10.27-12.31,17.4-20,24.79-5.5,5.31-11.8,5.58-16.78.79-4.67-4.5-4.72-11.22.38-16.44C493.39,230.28,501.68,222.33,509.86,214.28Z"/><path class="cls-8" d="M534.67,189.75l1.2-3.51,1,.4c.33.5.65.46,1,0,5.87-4.29,10.35-10,15.62-15,2.49-2.32,4.54-5.2,7.87-6.52l9.66,0-.08,0a1.93,1.93,0,0,0,1.94,1.13h0l1.07,1,0,0c.33.35.65.71,1,1.07h0A1.92,1.92,0,0,0,576,170.2l0-.08v10.27l0-.09a1.92,1.92,0,0,0-1.18,1.88l0,0-.91,1.09,0,0-1,1.08.06-.06-1.06,1.06.06-.06-1.07,1,0,0-1.06,1,0,0-1,1h0l-1,1,0,0-1,.95,0,0-1,1,0,0-1,1,0,0-1,1,0,0-1,1h0l-1,1h0l-1,1,0,0-1,1,0,0-1,1,0,0-1,1,0,0c-.34.35-.69.69-1,1l0,0-1,1,0,0-1,1,0,0-1,1,0,0-1,1.05,0,0-1.06.79-1.68,1.12a2.61,2.61,0,0,0-2.43-2l.06-2.87-.68-1.08a.77.77,0,0,1-.35-.81l-.92-1.23h0c-.1-1-.48-1.74-1.6-1.84C541.27,193.9,538.28,191.39,534.67,189.75Z"/><path class="cls-3" d="M599,158.26c-.44-5.86-2.1-10.77-8-14,10.39-4.76,20.56-5.75,31.62-5.85-3.45,5-5.2,10.12-4.74,15.78.17,2.22-1.4,1.68-2.68,1.63A45.1,45.1,0,0,0,599,158.26Z"/><path class="cls-3" d="M584.11,164.24c-4.45,0-7.44-2.64-7.61-6.83-.15-3.78,6.55-10.69,10.42-10.76,3.41-.05,7.68,5.31,7.8,9.78C594.81,160,589.08,164.18,584.11,164.24Z"/><path class="cls-3" d="M547.77,204.23a2.61,2.61,0,0,1,2.43,2c-2.69,2.24-4,5.65-7.21,7.58-6.06,3.68-10.62,3.22-15.63-1.91-1.15-1.19-1.92-4.72-4.72-1.64-2.36-.12-5,.25-5.76-3,4.2-4.44,12-3,15.47,2,1.12,1.62,1.85,3.63,4.44,2.91l8.43-7.18C546.32,205.55,546.9,204.45,547.77,204.23Z"/><path class="cls-9" d="M657.1,133.15c-3,0-6-.15-8.94,0-2.57.17-3.42-.66-3.42-3.32s1.14-2.93,3.3-2.89c6.28.1,12.58.16,18.87,0,2.62-.07,2.89,1.17,2.91,3.31s-.57,3-2.79,2.89C663.72,133,660.41,133.15,657.1,133.15Z"/><path class="cls-9" d="M613.59,93.16a45.83,45.83,0,0,1-.06,6c-.18,1.37,1.37,3.71-1.27,4a4,4,0,0,1-4.21-2.92,35.71,35.71,0,0,1,.09-14.81,4,4,0,0,1,4.25-2.88c2.12.27,1.1,2.38,1.19,3.68.16,2.31,0,4.65,0,7Z"/><path class="cls-9" d="M706.91,92.48c-.41,3.4,1,7-2,9.57-.87.75-1.82,1.63-3.08,1.16s-.73-1.69-.74-2.59c-.07-5.31,0-10.62-.12-15.92-.07-3.37,1.59-2.62,3.34-1.53C708.06,85.52,706.41,89.41,706.91,92.48Z"/><path class="cls-9" d="M657.22,45.25c-2.67-.23-4.37-1.53-4.53-4.3-.16-2.92,1.09-4.82,4.23-4.9a4.18,4.18,0,0,1,4.65,4.15C661.79,43.06,660.09,44.78,657.22,45.25Z"/><path class="cls-3" d="M576,180.39V170.12A9.42,9.42,0,0,1,576,180.39Z"/><path class="cls-3" d="M571,165.17l-9.66,0A9.23,9.23,0,0,1,571,165.17Z"/><path class="cls-3" d="M544.28,196.4c1.12.1,1.5.85,1.6,1.84Z"/><path class="cls-3" d="M576,170.2a1.92,1.92,0,0,1-1.15-1.95A2.16,2.16,0,0,1,576,170.2Z"/><path class="cls-3" d="M574.83,182.18A1.92,1.92,0,0,1,576,180.3,2.18,2.18,0,0,1,574.83,182.18Z"/><path class="cls-3" d="M572.85,166.26a1.93,1.93,0,0,1-1.94-1.13A2.12,2.12,0,0,1,572.85,166.26Z"/><path class="cls-3" d="M563.84,193.2l1-1Z"/><path class="cls-3" d="M564.84,192.19l1-1Z"/><path class="cls-3" d="M565.84,191.19l1-1Z"/><path class="cls-3" d="M566.84,190.19l1-.95Z"/><path class="cls-3" d="M567.85,189.21l1-1Z"/><path class="cls-3" d="M568.86,188.24l1-1Z"/><path class="cls-3" d="M569.88,187.28l1.06-1Z"/><path class="cls-5" d="M537.84,186.61c-.3.49-.62.53-1,0A1.91,1.91,0,0,1,537.84,186.61Z"/><path class="cls-3" d="M570.9,186.32l1.07-1Z"/><path class="cls-3" d="M574.87,168.26c-.33-.36-.65-.72-1-1.07Z"/><path class="cls-3" d="M571.91,185.35l1.06-1.06Z"/><path class="cls-3" d="M572.91,184.35l1-1.08Z"/><path class="cls-3" d="M547.15,200.28l.68,1.08Z"/><path class="cls-3" d="M573.93,167.23l-1.07-1Z"/><path class="cls-3" d="M573.89,183.32l.91-1.09Z"/><path class="cls-3" d="M558.89,198.3l1-1Z"/><path class="cls-3" d="M559.89,197.3l1-1Z"/><path class="cls-3" d="M556.89,200.3c.34-.34.69-.68,1-1C557.58,199.62,557.23,200,556.89,200.3Z"/><path class="cls-3" d="M560.88,196.29l1-1Z"/><path class="cls-3" d="M561.86,195.26l1-1Z"/><path class="cls-3" d="M555.89,201.3l1-1Z"/><path class="cls-3" d="M554.89,202.31l1-1Z"/><path class="cls-3" d="M552.9,204.33l1-1.05Z"/><path class="cls-3" d="M557.89,199.3l1-1Z"/><path class="cls-3" d="M551.88,205.08l1.06-.79C552.79,204.82,552.55,205.24,551.88,205.08Z"/><path class="cls-3" d="M545.88,198.24l.92,1.23Z"/><path class="cls-3" d="M562.85,194.23l1-1Z"/><path class="cls-3" d="M553.89,203.32l1-1Z"/><path class="cls-4" d="M660,215.83c-3.1,3.38-5.66,7.55-11.11,7.38.08-1.3,0-2.53-1.31-3.28,2.24-1.72,1.1-3.53.06-5.24-4.53-7.47-14.74-9.72-21.15-3.75C615,221.6,603.94,232.7,593.18,244c-5.79,6.12-4.93,15,1,20.66a14.79,14.79,0,0,0,20.39.36c5.83-5.43,11-11.6,17.07-18.15,1.36,4.22,2.14,7,3.15,9.61.64,1.68-.38,2.46-1.31,3.39-4,4-7.87,8.15-12,12a24.3,24.3,0,0,1-34.19-.81c-9.61-9.8-10-24.21-.49-34.09q15.22-15.84,31-31.13c12.23-11.83,28.17-10.07,38.1,3.91.77,1.08,1.32,2.36,2.94,2.36C659.16,213.36,659.55,214.6,660,215.83Z"/><path class="cls-8" d="M623.61,225.23a16.48,16.48,0,0,0,7.64,8.9c4.88,2.5,3.07,5.85,1,8.13-6.43,6.94-13.19,13.6-20.19,20-4.94,4.49-11.13,3.89-15.63-.73s-4.57-10.77.13-15.59c7.89-8.07,16-15.87,24.08-23.79C622.31,222.46,622.56,224.22,623.61,225.23Z"/><path class="cls-8" d="M660,215.83c-.4-1.23-.79-2.47-1.18-3.7,2-2.19.35-4-.78-5.65a29.16,29.16,0,0,0-15-11.35l5-1.94c2.34,1.35,3.28-.78,4.47-1.93,6.06-5.9,11.9-12,18.11-17.79a10.34,10.34,0,0,1,13.28-1.19A12,12,0,0,1,689,184.83c-.66,2.91-2.61,4.94-4.61,6.93Q672.17,203.82,660,215.83Z"/><path class="cls-12" d="M656,227.23a19.52,19.52,0,0,1-1,39c-10.31-.19-18.71-9.46-18.41-20.3A19.34,19.34,0,0,1,656,227.23Zm6.66,23.25,0,0a.93.93,0,0,0-1-1.08v0c-.34-3.26,2-5.31,3.49-7.75.89-1.48,1.26-3.1,0-4.52-1-1.1-2.21-1.41-3.17.2l.07,0c-3.49,0-4.69,4.54-8.34,4.2v0c0-.71-.33-1.06-1-1l0,0a.91.91,0,0,0-1-1.05l0,0a.91.91,0,0,0-1.07-1l0,.06c-.39-3.21-1.67-3.09-3.5-.95l0-.08a.85.85,0,0,0-.91,1.06c0,.45,0,.89,0,1.34-.34,1.73,0,3,2.11,2.87v.05c-.06,1.38.89,1.39,1.86,1.35l.8.78q-.9,2.29-1.82,4.59l-.26-.13.28.1a.86.86,0,0,0-1,1l-.27-.21.28.19c-.71,0-1,.33-.94,1l-.12-.35.14.35c-2.74,1.26-2.85,1.69-.83,3.43l.71.73c.1.62.26,1.2,1,1.3,1,.12,1.39-.4,1.52-1.28l3.75-3.68,4.54.12,0,0c.28,2.59,1.52,4.1,4.32,3.83l1.36.07c1.43.2,2.82-.13,2.84-1.71s-.58-3.24-2.87-2.79l.06,0A.88.88,0,0,0,662.61,250.48Z"/><path class="cls-4" d="M635.11,216.41c-1.1,6.15,4.36,7.34,8.5,11-.58.18-1.36.2-1.8.6-6.36,5.68-7.8,5.51-13.19-1.64-1.07-1.41-1.67-3.31-3.82-3.56C626.42,217.66,628.85,216.15,635.11,216.41Z"/><path class="cls-5" d="M635.11,216.41c-6.26-.26-8.69,1.25-10.31,6.41-1.08.46-1.06,1.47-1.19,2.41-1.05-1-1.3-2.77-3-3.12,2.13-2.29,4.16-4.68,6.41-6.85,5.56-5.35,11.71-5,16.72.93,1.16,1.36,2,3.09,3.81,3.74,1.29.75,1.39,2,1.31,3.28-4.25.7-7.32-1.29-9.9-4.37C637.92,217.62,637.28,215.81,635.11,216.41Z"/><path class="cls-3" d="M546.88,56.3c5.76-1,10.91,0,15,4.62,5.88,6.7,5,13-2.83,17.15-3.14,1.67-5,2.94-2.23,6.45.73.94.61,2.55.82,3.86s.15,3,2.1,2.66a2.15,2.15,0,0,0,1.44-3.18c-3.2-6.76,3.61-8.32,6.15-12,1.1-1.62,1.94,0,2.67.69,5.42,5.43,6.52,14.62,2.64,21.8-3.53,6.54-11.78,10.36-19.07,9.07-1.95-.34-2.38-1.27-2.57-2.95a14.39,14.39,0,0,0-5.53-9.7c-1-.79-2.23-1.87-3.45-.38s-.31,2.41.91,3.27c8.7,6.08,5.09,20.16-6.48,22.85-8.48,2-15.76-.62-22.27-5.84-1.88-1.5-3.1-1.94-5.55-.79-8.1,3.81-16.29-1-17.63-10.07-.48-3.3-.48-3.3-3.24-2.72-.37,3.87-2.54,6-6.29,6.8A15.33,15.33,0,0,0,478.7,109c-1.06.44-2.38.76-1.77,2.35.55,1.43,1.93,1.29,3,.9,2.75-1,5.42-2.3,8.12-3.47,6.23,9.45,10.91,11.43,21.2,8.65,1.59-.43,2.43.1,3.54.9,2.15,1.55,4.4,3,6.73,4.5-1.32,2.39-3.79,3.8-6,5.42a33.25,33.25,0,0,0-10.23,11.45c-2.14,4.19-4.91,5.43-9.52,4q1.57-5.94,3.17-11.9c.81-3,.72-4.63-3.45-4-10.89,1.65-18.41-4.07-20.62-15.15a4.17,4.17,0,0,0-1.28-2.53c-11.51-10.76-12-20-1.42-31.92,2.76,3.6,8.26,5.27,6.65,11.52a1.88,1.88,0,0,0,1.84,2.44c1.88,0,1.86-1.43,1.73-2.88-.33-3.62.91-6.5,4.17-8.38,1.11-.64,2.86-1.18,2.05-2.84s-2.6-1.1-3.92-.42c-2.28,1.18-4,4.15-7.12.88s-3.78-6.68-2.28-10.52c2.14-5.5,6.12-9.07,12.16-9.8s11.21,1,14.22,6.84c.7,1.37,1.36,3.1,3.22,2.16,2.33-1.17.64-2.91,0-4.24a14,14,0,0,0-8.91-7.5c-2.71-.81-2.22-1.76-.89-3.31,4.27-5,9.64-7.16,16.06-5.69s10.39,5.63,11.57,12.24c.28,1.52-.25,3.93,2.33,3.44,2.21-.42,1.68-2.56,1.29-4.16-.46-1.93-.66-4.19-1.82-5.63-3.36-4.16-.19-4.87,2.71-5.72,7.91-2.31,15.42,1.25,19.87,9.31a9.4,9.4,0,0,1-2.72,7.23c-1,1.06-2.45,2.49-.61,3.71s2.91-.38,3.85-1.89C547.32,62.28,546.9,59.27,546.88,56.3ZM523.54,96.44C520.73,89,518.13,82,515.45,75c-.56-1.46-2-1.57-3.38-1.53-2,.06-2.79,1.2-3.39,3-1.94,5.81-4.09,11.56-6.13,17.35-.45,1.3-1.85,2.93.17,3.86s3.58-.44,4-2.46c.59-3,2.49-3.41,5.08-3.44,3.29,0,6.41-.29,7,4.15.29,2.13,2,1.82,3.51,1.67C523.29,97.49,523.79,97,523.54,96.44Zm3.6-10.79h.06v10c0,1.34.54,2.29,2,2.34a2.13,2.13,0,0,0,2.46-2.41c0-6.5,0-13,0-19.48,0-1.59-.61-2.59-2.29-2.56s-2.24,1-2.19,2.63C527.2,79.32,527.14,82.49,527.14,85.65Zm26.54-8.83c-1.39-2.2-3.69-3.48-6.12-4.46A1.22,1.22,0,0,0,546,73.79c.74,3,3.2,4,5.89,4.48C552.77,78.44,553.54,78.11,553.68,76.82Z"/><path class="cls-13" d="M488,108.77c-2.7,1.17-5.37,2.43-8.12,3.47-1,.39-2.41.53-3-.9-.61-1.59.71-1.91,1.77-2.35a15.33,15.33,0,0,1,2.73-1.14c3.75-.78,5.92-2.93,6.29-6.8C487.82,103.62,487.91,106.2,488,108.77Z"/><path class="cls-4" d="M546.88,56.3c0,3,.44,6-1.29,8.72-.94,1.51-2,3.12-3.85,1.89s-.39-2.65.61-3.71A9.4,9.4,0,0,0,545.07,56Z"/><path class="cls-2" d="M962.51,111.14c0-6.16-.11-12.31,0-18.46.14-6.44,3.14-9.43,9.56-9.48q18.45-.15,36.91,0c6.27,0,9.56,3.28,9.63,9.59q.18,18.45,0,36.92c-.07,6.31-3.35,9.44-9.67,9.48-12.14.07-24.28.11-36.41,0-6.93,0-9.93-3.18-10-10.13,0-6,0-12,0-18Zm52.29.13h0c0-5.82,0-11.65,0-17.47,0-5.48-1.29-6.85-6.73-6.91q-17.46-.17-34.94-.14c-5.61,0-6.93,1.37-7,7.22-.06,11.48,0,23,0,34.44a14.1,14.1,0,0,0,.21,3c.29,1.26.54,2.86,2.17,2.93s1.39-1.67,1.78-2.63c3.59-8.81,10.24-13.36,19.6-13.59s16.21,4,20.21,12.57c.63,1.35.56,3.83,2.78,3.3,1.73-.42,1.89-2.51,1.89-4.23ZM990,135.61v.09h15c2.82,0,3.37-1.09,2.25-3.73-2.55-6-9.58-10.59-16.7-10.69-6.68-.09-14,4.48-16.48,10.24-1.19,2.71-1.22,4.32,2.52,4.14C981,135.46,985.51,135.61,990,135.61Z"/><path class="cls-5" d="M1064.71,107.23c10,0,20,0,29.93,0,1.46,0,3.9-.86,3.95,1.64s-2.38,2.35-4.16,2.29c-10.6-.39-21.21.67-31.83-.71-4.48-.58-9.14.4-13.73.55-4.31.14-8.63.16-12.95.15-2.08,0-5.34.43-5.36-2.06,0-3,3.32-1.83,5.23-1.85C1045.43,107.16,1055.07,107.23,1064.71,107.23Z"/><path class="cls-2" d="M1064.4,96.73c-10,0-20,0-29.93,0-1.66,0-4.31.83-4.46-1.71-.16-2.73,2.54-2,4.19-2q30.43,0,60.87.06c1.52,0,4-.7,4,1.61,0,2.68-2.6,1.94-4.26,1.95-10.15.06-20.29,0-30.44,0Z"/><path class="cls-5" d="M1051.86,121.23c5.81,0,11.61,0,17.42,0,1.35,0,3.38-.53,3.33,1.8,0,1.94-1.77,2.15-3.32,2.15q-17.93,0-35.84,0c-1.51,0-3.32-.13-3.14-2.21.15-1.62,1.77-1.73,3.13-1.73C1039.58,121.23,1045.72,121.24,1051.86,121.23Z"/><path class="cls-2" d="M1053.62,210.55a33.22,33.22,0,0,1,66.43-.15c.08,18.58-14.44,33.18-33.21,33.41C1068.42,244,1053.75,229.34,1053.62,210.55Zm33.23-29.25a29.29,29.29,0,1,0-.06,58.58c16.18-.06,29.52-13.22,29.44-29C1116.15,194.21,1103.36,181.35,1086.85,181.3Z"/><path class="cls-2" d="M155.92,77a60.42,60.42,0,0,1-.43,120.83c-33.34-.06-60.11-27.42-60-61.29C95.63,103.36,122.42,77,155.92,77ZM99.53,141.32a87.45,87.45,0,0,0,1.43,9.33c4.26,16.35,13.24,29,28.83,36.47.79,1.7,2.27,2.15,4,2.19,24.59,10.84,52.29,2.74,68.39-20,1.7-1.22,2.28-3.07,2.75-5,6.76-11.31,8.38-23.58,6.3-36.34-1.29-8-3.26-15.83-9.28-21.88,0-1.67-.33-3.12-2-3.89-6.43-8.66-15.07-14.27-25-18.08-1.73-1.73-4.35-.44-6.18-1.82-35.4-6.88-64.89,14.4-69.18,49.9C98.29,135.25,98.73,138.29,99.53,141.32Z"/><path class="cls-2" d="M251.83,83.42c-9.26-1-18.18-1.84-27.09-2.79-1.4-.15-3.46,0-3.31-2.08.17-2.36,2.19-1.94,3.87-1.77,8.75.88,17.52,1.67,26.26,2.67,1.93.22,5.29-.32,5,2.6S253.2,82.6,251.83,83.42Z"/><path class="cls-2" d="M253.12,72.34c-9.26-1-18.34-1.9-27.43-2.87-1.39-.15-3.39.08-3.06-2.17.29-1.93,2-1.82,3.57-1.66,9.08.93,18.18,1.78,27.26,2.73,1.72.18,4.4-.11,4.24,2.3C257.5,73.81,254.61,71.83,253.12,72.34Z"/><path class="cls-2" d="M225.93,88.19c4.14.38,8.29.7,12.42,1.18,1.54.18,3.8.07,3.59,2.43-.2,2.14-2.21,1.57-3.62,1.44-4.8-.42-9.61-.86-14.4-1.47-1.49-.19-4,0-3.68-2.29s2.65-1.25,4.19-1.35C224.93,88.1,225.43,88.17,225.93,88.19Z"/><path class="cls-2" d="M99.36,247.48c-6.27.59-7.28-.67-5.6-6.95,1.8-6.7,8-11.5,15.5-12,6.72-.43,14.11,4.12,16.44,10,1.43,3.62,1.27,5.93-3.54,6.32C114.54,245.51,107,246.6,99.36,247.48Zm2.58-4c5.61-.7,11.37-1.56,17.16-2.09,3.93-.36,3.06-1.93,1.37-4a13.63,13.63,0,0,0-21.55.86c-.93,1.36-2.24,3-1.6,4.52C98.17,244.72,100.26,243.07,101.94,243.46Z"/><path class="cls-2" d="M106.33,227.57a9,9,0,0,1-8.88-9.31,9.19,9.19,0,0,1,9.56-9.21,9.32,9.32,0,0,1,9.25,9.09C116.35,223.55,112.12,227.56,106.33,227.57Zm.39-3.93c3.39-.13,5.39-1.88,5.57-5.13a5.15,5.15,0,0,0-5.31-5.86c-3.38-.1-5.53,2.18-5.52,5.66C101.47,221.62,103.58,223.29,106.72,223.64Z"/><path class="cls-2" d="M135.16,226.29c-1-.11-3.2,1-3.27-1.73,0-2,1.82-2,3.28-2.21,9-1,18.06-2.13,27.11-3,1.59-.16,4.18-1.21,4.47,1.48.27,2.51-2.21,2.34-4,2.53Z"/><path class="cls-2" d="M137.22,237.37c-1.9-.19-4.13.68-4.21-1.83-.06-1.93,1.92-2,3.36-2.14,5.09-.56,10.19-1.07,15.29-1.59,1.38-.14,2.85-.12,3.1,1.59.29,1.94-1.38,1.93-2.66,2.09C147,236.15,141.94,236.78,137.22,237.37Z"/><path class="cls-2" d="M61.24,174.58c7.17,0,13.9,4.74,15.51,11,.7,2.74.68,4.6-3.17,4.94-8.42.75-16.81,1.87-25.16,3.19-4,.62-4.7-1.09-4.43-4.36C44.64,181.29,52.41,174.61,61.24,174.58Zm-12.86,15c7.54-.85,14.92-1.63,22.29-2.52,2.76-.33,2.2-1.9.93-3.41-3.33-4-7.56-5.94-12.76-5C53,179.59,49.59,183.14,48.38,189.56Z"/><path class="cls-2" d="M57.5,173.42a9.36,9.36,0,0,1-9.44-8.95,9.71,9.71,0,0,1,9.29-9.78,9.45,9.45,0,0,1,9.57,9.38C67,169.45,63.05,173.38,57.5,173.42Zm.39-3.82c3.35-.3,5.26-2.16,5.22-5.49a5.3,5.3,0,0,0-5.73-5.62A5.07,5.07,0,0,0,52.07,164C52.12,167.47,54.41,169.28,57.89,169.6Z"/><path class="cls-2" d="M657.37,71.08c5.83,0,11.67-.22,17.48,0,8.41.38,13.4,4.75,14.53,13a61.87,61.87,0,0,1-.14,18.92c-1.28,7.57-6,12-13.6,12.14-12.15.29-24.32.34-36.47,0-9.08-.27-14.16-5.92-14.44-15.11-.14-4.66-.2-9.34,0-14,.44-9.57,5.43-14.51,15.14-14.89,5.82-.23,11.66,0,17.49,0Zm-.09,40.33v0c6.33,0,12.67.34,19-.1,5.73-.4,9.38-4.29,9.6-9.66s.24-11,0-16.49-3.22-8.85-8.65-10.12a17.48,17.48,0,0,0-3.94-.54c-10.66,0-21.33-.19-32,0-9.1.2-12.68,3.83-13,12.84a116.75,116.75,0,0,0,.16,13.49c.52,6.63,3.79,10.06,10.43,10.5C644.94,111.72,651.12,111.41,657.28,111.41Z"/><path class="cls-3" d="M535.78,255c-1.86.09-8.46-6.1-8.32-7.6a2.42,2.42,0,0,1,1-1.56,1.91,1.91,0,0,1,2.65.57c3.78,5.18,6.29,2.15,9-1.16a83.42,83.42,0,0,1,6.18-6.44c.84-.81,1.93-1.5,3-.38s.55,2.14-.28,3.05q-5.7,6.21-11.48,12.36A8.2,8.2,0,0,1,535.78,255Z"/><path class="cls-10" d="M647.11,255.73l-.71-.73c.28-1.14.55-2.29.83-3.43l-.14-.35.11.35a1,1,0,0,0,.95-1l-.28-.19.27.21a1,1,0,0,0,1-1l-.28-.1.26.13c1.9-1,4.51-1.75,1.82-4.59l-.8-.78a2,2,0,0,0-1.86-1.35v-.05c-.14-1.37-1.15-2.1-2.11-2.87l0-1.34.92-1.06,0,.08,3.5.95,0-.06,1.07,1,0,0,1,1.05,0,0c.35.34.7.69,1,1v0c.92,2,2.17,2.21,3.7.66s3.09-3.24,4.63-4.86l-.06,0c5.4,1.33,1.76,3.36.33,5.08-1.85,2.24-5.58,4.2-.61,7v0l1,1.08,0,0,1,1.05-.06,0c.72,1.5,1.8,3,0,4.5l-1.35-.06-4.33-3.84,0,0c-1.44-2.68-3-2.69-4.54-.12l-3.75,3.68Z"/><path class="cls-14" d="M661.63,249.46c-5-2.79-1.24-4.75.61-7,1.43-1.72,5.07-3.75-.33-5.08,1-1.61,2.15-1.3,3.17-.2,1.3,1.42.93,3,0,4.52C663.63,244.15,661.29,246.2,661.63,249.46Z"/><path class="cls-14" d="M662,237.34c-1.54,1.62-3.07,3.26-4.63,4.86s-2.78,1.3-3.7-.66C657.29,241.88,658.49,237.33,662,237.34Z"/><path class="cls-14" d="M663.6,256.06c1.77-1.51.69-3,0-4.5,2.29-.45,2.89,1.18,2.87,2.79S665,256.26,663.6,256.06Z"/><path class="cls-14" d="M657.92,252.16l4.33,3.84C659.44,256.26,658.2,254.75,657.92,252.16Z"/><path class="cls-14" d="M651,245c2.69,2.84.08,3.57-1.82,4.59Q650,247.26,651,245Z"/><path class="cls-14" d="M653.42,252.07c1.59-2.57,3.1-2.56,4.54.12Z"/><path class="cls-14" d="M650.59,238.54l-3.5-.95C648.92,235.45,650.2,235.33,650.59,238.54Z"/><path class="cls-14" d="M647.23,251.57c-.28,1.14-.55,2.29-.83,3.43C644.38,253.26,644.49,252.83,647.23,251.57Z"/><path class="cls-14" d="M646.19,239.91c1,.77,2,1.5,2.11,2.87C646.16,242.88,645.85,241.64,646.19,239.91Z"/><path class="cls-14" d="M647.11,255.73l2.56,0c-.13.88-.56,1.4-1.52,1.28C647.37,256.93,647.21,256.35,647.11,255.73Z"/><path class="cls-14" d="M648.29,242.83a2,2,0,0,1,1.86,1.35C649.18,244.22,648.23,244.21,648.29,242.83Z"/><path class="cls-14" d="M647.14,237.51l-.92,1.06A.86.86,0,0,1,647.14,237.51Z"/><path class="cls-14" d="M652.66,240.5l-1-1.05A.91.91,0,0,1,652.66,240.5Z"/><path class="cls-14" d="M653.65,241.51c-.34-.35-.69-.7-1-1C653.32,240.45,653.66,240.8,653.65,241.51Z"/><path class="cls-14" d="M649.15,249.52a1,1,0,0,1-1,1A.86.86,0,0,1,649.15,249.52Z"/><path class="cls-14" d="M662.65,250.51l-1-1.08A.93.93,0,0,1,662.65,250.51Z"/><path class="cls-14" d="M648.15,250.52a1,1,0,0,1-.95,1C647.11,250.85,647.44,250.51,648.15,250.52Z"/><path class="cls-14" d="M663.63,251.52l-1-1.05A.89.89,0,0,1,663.63,251.52Z"/><path class="cls-14" d="M651.68,239.49l-1.07-1A.91.91,0,0,1,651.68,239.49Z"/><path class="cls-2" d="M523.54,96.44c.25.56-.25,1-1.25,1.15-1.49.15-3.22.46-3.51-1.67-.6-4.44-3.72-4.19-7-4.15-2.59,0-4.49.44-5.08,3.44-.39,2-1.8,3.45-4,2.46s-.62-2.56-.17-3.86c2-5.79,4.19-11.54,6.13-17.35.6-1.8,1.38-2.94,3.39-3,1.42,0,2.82.07,3.38,1.53C518.13,82,520.73,89,523.54,96.44ZM509.13,88a12.67,12.67,0,0,0,6.72-.1c-1.09-2.91-2.13-5.71-3.49-9.36Z"/><path class="cls-2" d="M527.14,85.65c0-3.16.06-6.33,0-9.49,0-1.62.52-2.6,2.19-2.63s2.3,1,2.29,2.56c0,6.49,0,13,0,19.48A2.13,2.13,0,0,1,529.17,98c-1.43,0-2-1-2-2.34v-10Z"/><path class="cls-4" d="M553.68,76.82c-.14,1.29-.91,1.62-1.77,1.45-2.69-.5-5.15-1.5-5.89-4.48a1.22,1.22,0,0,1,1.54-1.43C550,73.34,552.29,74.62,553.68,76.82Z"/><path class="cls-9" d="M1014.8,111.27v18.47c0,1.72-.16,3.81-1.89,4.23-2.22.53-2.15-1.95-2.78-3.3-4-8.61-10.87-12.8-20.21-12.57s-16,4.78-19.6,13.59c-.39,1-.18,2.69-1.78,2.63s-1.88-1.67-2.17-2.93a14.1,14.1,0,0,1-.21-3c0-11.48,0-23,0-34.44,0-5.85,1.35-7.21,7-7.22q17.48,0,34.94.14c5.44.06,6.7,1.43,6.73,6.91,0,5.82,0,11.65,0,17.47Zm-13.1-7a11.22,11.22,0,1,0-22.43-.27,11.14,11.14,0,0,0,11,11.21A11.51,11.51,0,0,0,1001.7,104.24Z"/><path class="cls-15" d="M990,135.61c-4.49,0-9-.15-13.46,0-3.74.18-3.71-1.43-2.52-4.14,2.53-5.76,9.8-10.33,16.48-10.24,7.12.1,14.15,4.74,16.7,10.69,1.12,2.64.57,3.73-2.25,3.73H990Z"/><path class="cls-8" d="M1086.85,181.3c16.51,0,29.3,12.91,29.38,29.54.08,15.82-13.26,29-29.44,29a29.29,29.29,0,1,1,.06-58.58Zm-14.45,44.55c.09,4,3.34,5.33,7.66,2.23,4.64-3.33,8.59-4,13.21-.25,1.64,1.34,3.74,3.23,6.22,1.29,2.3-1.79,1.65-4.32.9-6.43-1.86-5.2-.87-9.26,3.89-12.29a8.57,8.57,0,0,0,1.77-1.74c3-3.43,2.41-5.49-1.94-6.66a13,13,0,0,0-3.91-.69c-4.56.28-7-2-8.26-6.14a21.05,21.05,0,0,0-1.41-3.19c-.84-1.69-1.84-3.18-4.07-3.09-2,.08-2.94,1.57-3.41,3.14-1.91,6.36-5.47,10.41-12.71,9.78a4.83,4.83,0,0,0-1.47.28c-3.66.9-4.59,3.4-1.86,5.66,5.83,4.83,8.52,10.22,5.46,17.61A2,2,0,0,0,1072.4,225.85Z"/><path class="cls-10" d="M201.93,106.11c6,6,8,13.92,9.28,21.88,2.08,12.76.46,25-6.3,36.34q-38.74,0-77.48,0c-6,0-8.85-2.22-9-7.61q-.41-21.24-.31-42.49c0-5.07,2.75-7.56,7.8-7.82,1.66-.09,3.33,0,5,0Zm-60.06,48.05v-.06c4.33,0,8.66,0,13,0,3.47,0,4.28-1.59,3.52-4.79-1.7-7.21-8-12.23-16.05-12.55s-14.61,4.29-16.65,11.57c-1.31,4.68-.55,5.77,4.21,5.81C133.88,154.19,137.87,154.16,141.87,154.16Zm-.51-37.48c-5.13.11-8.9,4.09-8.91,9.41a8.89,8.89,0,0,0,9.17,9.1,9.26,9.26,0,1,0-.26-18.51Zm42.54,16.7v-.06H169c-1.57,0-3.25.12-3.1,2.22.12,1.75,1.7,1.75,3,1.75h29.38c1.36,0,2.89,0,2.89-1.86s-1.42-2-2.84-2C193.52,133.37,188.71,133.38,183.9,133.38Zm-.61-7.18v-.06c4.82,0,9.64,0,14.46,0,1.49,0,3.32.13,3.26-2,0-1.77-1.65-1.78-3-1.79q-14.46,0-28.92,0c-1.5,0-3.33-.09-3.2,2.07s2,1.88,3.44,1.88Zm-6.5,22.07v0c2.65,0,5.3,0,8,0,1.37,0,2.85-.2,2.77-2-.06-1.38-1.41-1.73-2.6-1.74q-8.19-.06-16.39,0c-1.19,0-2.49.34-2.52,1.8,0,1.87,1.52,1.86,2.84,1.88C171.49,148.3,174.14,148.27,176.79,148.27Z"/><path class="cls-10" d="M202.16,169.3c-16.1,22.75-43.8,30.85-68.39,20a97.51,97.51,0,0,0-1.86-16.79c-.62-3.54.5-4.46,4.05-4.44,20.58.16,41.17,0,61.76.11C199.21,168.2,201.1,167.3,202.16,169.3Z"/><path class="cls-10" d="M99.54,132.22c4.29-35.5,33.78-56.78,69.18-49.9,1.17,6.62-2.65,13.33,1,20.06-14.76,0-28.91-.08-43,0-8.33.06-12.14,4-12.26,12.34-.08,5.33-.16,10.66-.12,16,0,2-.73,3.43-2.76,3.25-4-.36-8,3.14-11.83-.31C99.46,133.42,99.6,132.71,99.54,132.22Z"/><path class="cls-13" d="M99.54,132.22c.06.49-.08,1.2.19,1.45,3.81,3.45,7.87,0,11.83.31,2,.18,2.78-1.21,2.76-3.25,0-5.32,0-10.65.12-16,.12-8.32,3.93-12.28,12.26-12.34,14.14-.11,28.29,0,43.05,0-3.68-6.73.14-13.44-1-20.06,1.83,1.38,4.45.09,6.18,1.82-.73.13-1.85-.36-2,.83a83.69,83.69,0,0,0-.88,11.36c.13,3.82,2.58,6,6.52,6,7.11,0,14.22-.08,21.33-.13,1.7.77,2.07,2.22,2,3.89l-71,.26c-1.67,0-3.34-.07-5,0-5,.26-7.79,2.75-7.8,7.82q-.08,21.24.31,42.49c.1,5.39,3,7.61,9,7.61q38.73,0,77.48,0c-.47,1.9-1,3.75-2.75,5-1.06-2-2.95-1.1-4.44-1.11-20.59-.06-41.18.05-61.76-.11-3.55,0-4.67.9-4.05,4.44a97.51,97.51,0,0,1,1.86,16.79c-1.71,0-3.19-.49-4-2.19-.61-5.1-1.37-10.18-1.75-15.3-.2-2.61-1-3.49-3.77-3.87-6.34-.88-9.46-4.74-9.71-11.19-.15-3.65-.06-7.3-.12-10.95-.13-8.33-.18-8.53-8.34-7.16-2.19.37-5.65-1.21-6.57,2.67C98.73,138.29,98.29,135.25,99.54,132.22Z"/><path class="cls-10" d="M99.53,141.32c.92-3.88,4.38-2.3,6.57-2.67,8.16-1.37,8.21-1.17,8.34,7.16.06,3.65,0,7.3.12,10.95.25,6.45,3.37,10.31,9.71,11.19,2.73.38,3.57,1.26,3.77,3.87.38,5.12,1.14,10.2,1.75,15.3C114.2,179.69,105.22,167,101,150.65A87.45,87.45,0,0,1,99.53,141.32Z"/><path class="cls-10" d="M199.9,102.22c-7.11,0-14.22.14-21.33.13-3.94,0-6.39-2.2-6.52-6A83.69,83.69,0,0,1,172.93,85c.12-1.19,1.24-.7,2-.83C184.83,88,193.47,93.56,199.9,102.22Z"/><path class="cls-14" d="M101.94,243.46c-1.68-.39-3.77,1.26-4.62-.71-.64-1.51.67-3.16,1.6-4.52a13.63,13.63,0,0,1,21.55-.86c1.69,2.07,2.56,3.64-1.37,4C113.31,241.9,107.55,242.76,101.94,243.46Z"/><path class="cls-14" d="M106.72,223.64c-3.14-.35-5.25-2-5.26-5.33,0-3.48,2.14-5.76,5.52-5.66a5.15,5.15,0,0,1,5.31,5.86C112.11,221.76,110.11,223.51,106.72,223.64Z"/><path class="cls-11" d="M48.38,189.56c1.21-6.42,4.62-10,10.46-11,5.2-.9,9.43,1.07,12.76,5,1.27,1.51,1.83,3.08-.93,3.41C63.3,187.93,55.92,188.71,48.38,189.56Z"/><path class="cls-11" d="M57.89,169.6c-3.48-.32-5.77-2.13-5.82-5.64a5.07,5.07,0,0,1,5.31-5.47,5.3,5.3,0,0,1,5.73,5.62C63.15,167.44,61.24,169.3,57.89,169.6Z"/><path class="cls-9" d="M657.28,111.41c-6.16,0-12.34.31-18.47-.09-6.64-.44-9.91-3.87-10.43-10.5a116.75,116.75,0,0,1-.16-13.49c.36-9,3.94-12.64,13-12.84,10.66-.23,21.33-.08,32,0a17.48,17.48,0,0,1,3.94.54c5.43,1.27,8.4,4.53,8.65,10.12s.23,11,0,16.49-3.87,9.26-9.6,9.66c-6.3.44-12.64.1-19,.1Zm-.16-6.27a11.35,11.35,0,0,0,7-2.29c.86-.7,1.87-1.55,1-2.92s-1.83-1.23-2.93-.42c-3.36,2.5-6.69,2.41-10.05,0a2,2,0,0,0-3,.4c-.76,1.22.16,2.19,1.13,2.91A13.48,13.48,0,0,0,657.12,105.14Zm19.27-15.08c-.43-2.48-1.7-4.19-4.6-4-2.51.16-4,1.51-4.08,4.09-.07,2.8,1.43,4.39,4.23,4.41S676.08,92.86,676.39,90.06Zm-29.57.09c-.48-2.69-1.94-4.32-4.7-4.19A4,4,0,0,0,638,90.57a3.94,3.94,0,0,0,4.33,3.9C645.1,94.45,646.46,92.77,646.82,90.15Z"/><path class="cls-3" d="M509.13,88l3.23-9.46c1.36,3.65,2.4,6.45,3.49,9.36A12.67,12.67,0,0,1,509.13,88Z"/><path class="cls-2" d="M1001.7,104.24a11.51,11.51,0,0,1-11.42,10.94,11.14,11.14,0,0,1-11-11.21,11.22,11.22,0,1,1,22.43.27Zm-3.92,0a7.38,7.38,0,1,0-14.75-.47,7.51,7.51,0,0,0,7.19,7.43A7.33,7.33,0,0,0,997.78,104.28Z"/><path class="cls-2" d="M1072.4,225.85a2,2,0,0,1,.07-.49c3.06-7.39.37-12.78-5.46-17.61-2.73-2.26-1.8-4.76,1.86-5.66a4.83,4.83,0,0,1,1.47-.28c7.24.63,10.8-3.42,12.71-9.78.47-1.57,1.36-3.06,3.41-3.14,2.23-.09,3.23,1.4,4.07,3.09a21.05,21.05,0,0,1,1.41,3.19c1.21,4.16,3.7,6.42,8.26,6.14a13,13,0,0,1,3.91.69c4.35,1.17,4.94,3.23,1.94,6.66a8.57,8.57,0,0,1-1.77,1.74c-4.76,3-5.75,7.09-3.89,12.29.75,2.11,1.4,4.64-.9,6.43-2.48,1.94-4.58,0-6.22-1.29-4.62-3.77-8.57-3.08-13.21.25C1075.74,231.18,1072.49,229.87,1072.4,225.85Zm4.37-.75c6.78-5.74,13.2-4.89,20.06-.16-4.39-8.74-.11-14.13,6.25-19.4-9.5,1.44-13.8-3.71-16.43-11.77-2.2,8.55-7.1,12.68-16.37,12.11C1077.51,210.77,1080.2,216.71,1076.77,225.1Z"/><path class="cls-13" d="M141.87,154.16c-4,0-8,0-12,0-4.76,0-5.52-1.13-4.21-5.81,2-7.28,8.66-11.88,16.65-11.57s14.35,5.34,16.05,12.55c.76,3.2-.05,4.82-3.52,4.79-4.32-.05-8.65,0-13,0Zm-.94-13.94a12.72,12.72,0,0,0-10.39,6.59c-1.25,2.13-.83,3.4,1.94,3.4,6.46,0,12.92,0,19.38.1,3,0,3-1.37,1.72-3.31A14.67,14.67,0,0,0,140.93,140.22Z"/><path class="cls-13" d="M141.36,116.68a9.26,9.26,0,1,1,.26,18.51,8.89,8.89,0,0,1-9.17-9.1C132.46,120.77,136.23,116.79,141.36,116.68ZM147,126c-.24-3.28-1.93-5.43-5.21-5.53a5.37,5.37,0,0,0-.28,10.73C144.82,131.33,146.57,129.32,147,126Z"/><path class="cls-13" d="M183.9,133.38c4.81,0,9.62,0,14.44,0,1.42,0,2.84.33,2.84,2s-1.53,1.86-2.89,1.86H168.91c-1.35,0-2.93,0-3-1.75-.15-2.1,1.53-2.22,3.1-2.22H183.9Z"/><path class="cls-13" d="M183.29,126.2h-14c-1.49,0-3.31.17-3.44-1.88s1.7-2.07,3.2-2.07q14.46,0,28.92,0c1.35,0,3,0,3,1.79.06,2.17-1.77,2-3.26,2-4.82,0-9.64,0-14.46,0Z"/><path class="cls-13" d="M176.79,148.27c-2.65,0-5.3,0-7.95,0-1.32,0-2.88,0-2.84-1.88,0-1.46,1.33-1.79,2.52-1.8q8.19-.06,16.39,0c1.19,0,2.54.36,2.6,1.74.08,1.76-1.4,2-2.77,2-2.65,0-5.3,0-8,0Z"/><path class="cls-2" d="M657.12,105.14a13.48,13.48,0,0,1-6.9-2.34c-1-.72-1.89-1.69-1.13-2.91a2,2,0,0,1,3-.4c3.36,2.43,6.69,2.52,10.05,0,1.1-.81,2.13-.86,2.93.42s-.16,2.22-1,2.92A11.35,11.35,0,0,1,657.12,105.14Z"/><path class="cls-2" d="M676.39,90.06c-.31,2.8-1.64,4.52-4.45,4.49s-4.3-1.61-4.23-4.41c.06-2.58,1.57-3.93,4.08-4.09C674.69,85.87,676,87.58,676.39,90.06Z"/><path class="cls-2" d="M646.82,90.15c-.36,2.62-1.72,4.3-4.5,4.32a3.94,3.94,0,0,1-4.33-3.9A4,4,0,0,1,642.12,86C644.88,85.83,646.34,87.46,646.82,90.15Z"/><path class="cls-1" d="M997.78,104.28a7.33,7.33,0,0,1-7.56,7,7.51,7.51,0,0,1-7.19-7.43,7.38,7.38,0,1,1,14.75.47Z"/><path class="cls-7" d="M1076.77,225.1c3.43-8.39.74-14.33-6.49-19.22,9.27.57,14.17-3.56,16.37-12.11,2.63,8.06,6.93,13.21,16.43,11.77-6.36,5.27-10.64,10.66-6.25,19.4C1090,220.21,1083.55,219.36,1076.77,225.1Z"/><path class="cls-11" d="M140.93,140.22A14.67,14.67,0,0,1,153.58,147c1.32,1.94,1.28,3.35-1.72,3.31-6.46-.1-12.92-.12-19.38-.1-2.77,0-3.19-1.27-1.94-3.4A12.72,12.72,0,0,1,140.93,140.22Z"/><path class="cls-11" d="M147,126c-.39,3.28-2.14,5.29-5.49,5.2a5.37,5.37,0,0,1,.28-10.73C145,120.61,146.72,122.76,147,126Z"/></g></g></svg>